<svg width="1077" height="542" viewBox="0 0 1077 542" fill="none" xmlns="http://www.w3.org/2000/svg">
<rect width="1077" height="542" rx="8" fill="white" fill-opacity="0.87"/>
<rect x="0.5" y="0.5" width="1076" height="541" rx="7.5" stroke="black" stroke-opacity="0.1"/>
<path d="M586.589 219.483C580.508 215.258 573.28 212.995 565.875 213C564.665 213 563.505 213.481 562.649 214.336C561.793 215.192 561.313 216.352 561.313 217.563C561.313 218.773 561.793 219.933 562.649 220.789C563.505 221.644 564.665 222.125 565.875 222.125C571.792 222.128 577.547 224.06 582.268 227.627C585.812 230.298 588.66 233.782 590.572 237.787C592.484 241.791 593.402 246.197 593.25 250.632C593.335 257.525 590.899 264.211 586.401 269.435C581.903 274.659 575.652 278.061 568.822 279.001C564.61 279.453 560.351 278.918 556.381 277.441C553.966 276.531 551.341 276.335 548.818 276.877C546.295 277.419 543.982 278.676 542.155 280.498C538.179 284.487 533.28 287.434 527.893 289.076C522.506 290.718 516.796 291.005 511.271 289.911C505.747 288.818 500.577 286.377 496.222 282.806C491.866 279.236 488.459 274.645 486.303 269.442C484.148 264.239 483.309 258.584 483.863 252.979C484.417 247.374 486.345 241.993 489.478 237.312C492.61 232.632 496.85 228.797 501.82 226.147C506.79 223.498 512.337 222.116 517.969 222.125C518.899 222.347 519.866 222.362 520.803 222.167C521.739 221.972 522.62 221.573 523.385 220.998C523.836 220.571 524.196 220.056 524.442 219.485C524.687 218.914 524.813 218.298 524.813 217.677C524.804 217.039 524.665 216.41 524.404 215.828C524.143 215.247 523.766 214.724 523.296 214.294C522.826 213.863 522.273 213.533 521.671 213.324C521.068 213.115 520.43 213.031 519.794 213.078C519.182 213.037 518.571 213 517.969 213C510.835 212.991 503.81 214.743 497.516 218.1C491.222 221.457 485.854 226.315 481.888 232.245C477.921 238.174 475.48 244.99 474.78 252.089C474.079 259.188 475.142 266.35 477.873 272.94C480.605 279.529 484.92 285.343 490.437 289.865C495.954 294.387 502.502 297.478 509.499 298.863C516.497 300.248 523.728 299.884 530.552 297.804C537.375 295.724 543.58 291.993 548.615 286.94C549.208 286.367 549.951 285.973 550.759 285.804C551.566 285.635 552.405 285.699 553.178 285.986C558.471 287.982 564.162 288.697 569.785 288.071C578.845 286.871 587.156 282.405 593.157 275.511C599.157 268.618 602.435 259.771 602.375 250.632C602.527 244.539 601.165 238.503 598.409 233.067C595.654 227.631 591.593 222.963 586.589 219.483ZM553.524 211.663L547.625 205.764V235.813C547.625 237.023 547.144 238.183 546.289 239.039C545.433 239.894 544.273 240.375 543.063 240.375C541.853 240.375 540.692 239.894 539.836 239.039C538.981 238.183 538.5 237.023 538.5 235.813V205.764L532.601 211.663C531.74 212.494 530.588 212.954 529.392 212.944C528.195 212.933 527.051 212.454 526.205 211.608C525.359 210.762 524.879 209.617 524.869 208.421C524.858 207.225 525.318 206.072 526.149 205.212L539.837 191.524C540.697 190.674 541.858 190.197 543.067 190.197C544.277 190.197 545.437 190.674 546.297 191.524L559.985 205.212C560.816 206.072 561.276 207.225 561.265 208.421C561.255 209.617 560.775 210.762 559.929 211.608C559.083 212.454 557.939 212.933 556.743 212.944C555.547 212.954 554.394 212.494 553.534 211.663H553.524Z" fill="url(#paint0_linear_236_523)"/>
<path d="M377.186 358.86C375.466 358.86 374.006 358.48 372.806 357.72C371.606 356.96 370.69 355.904 370.058 354.552C369.434 353.2 369.122 351.636 369.122 349.86C369.122 348.084 369.434 346.52 370.058 345.168C370.69 343.816 371.606 342.76 372.806 342C374.006 341.24 375.466 340.86 377.186 340.86C379.186 340.86 380.83 341.368 382.118 342.384C383.414 343.4 384.306 344.768 384.794 346.488L382.622 347.064C382.27 345.776 381.642 344.76 380.738 344.016C379.834 343.272 378.65 342.9 377.186 342.9C375.898 342.9 374.826 343.192 373.97 343.776C373.114 344.36 372.47 345.176 372.038 346.224C371.606 347.264 371.386 348.476 371.378 349.86C371.37 351.236 371.582 352.448 372.014 353.496C372.446 354.536 373.094 355.352 373.958 355.944C374.822 356.528 375.898 356.82 377.186 356.82C378.65 356.82 379.834 356.448 380.738 355.704C381.642 354.952 382.27 353.936 382.622 352.656L384.794 353.232C384.306 354.944 383.414 356.312 382.118 357.336C380.83 358.352 379.186 358.86 377.186 358.86ZM387.666 358.5V340.86H389.802V358.5H387.666ZM393.643 343.248V341.04H395.779V343.248H393.643ZM393.643 358.5V345.54H395.779V358.5H393.643ZM404.839 358.86C403.527 358.86 402.411 358.568 401.491 357.984C400.579 357.392 399.883 356.58 399.403 355.548C398.923 354.516 398.675 353.34 398.659 352.02C398.675 350.668 398.927 349.48 399.415 348.456C399.911 347.424 400.619 346.62 401.539 346.044C402.459 345.468 403.567 345.18 404.863 345.18C406.231 345.18 407.407 345.516 408.391 346.188C409.383 346.86 410.047 347.78 410.383 348.948L408.271 349.584C407.999 348.832 407.555 348.248 406.939 347.832C406.331 347.416 405.631 347.208 404.839 347.208C403.951 347.208 403.219 347.416 402.643 347.832C402.067 348.24 401.639 348.808 401.359 349.536C401.079 350.256 400.935 351.084 400.927 352.02C400.943 353.46 401.275 354.624 401.923 355.512C402.579 356.392 403.551 356.832 404.839 356.832C405.687 356.832 406.391 356.64 406.951 356.256C407.511 355.864 407.935 355.3 408.223 354.564L410.383 355.128C409.935 356.336 409.235 357.26 408.283 357.9C407.331 358.54 406.183 358.86 404.839 358.86ZM412.82 358.5L412.832 341.22H414.992V351.78L420.428 345.54H423.2L417.476 352.02L423.872 358.5H420.884L414.992 352.26V358.5H412.82ZM437.107 358.5C436.339 358.652 435.579 358.712 434.827 358.68C434.083 358.656 433.419 358.508 432.835 358.236C432.251 357.956 431.807 357.524 431.503 356.94C431.247 356.428 431.107 355.912 431.083 355.392C431.067 354.864 431.059 354.268 431.059 353.604V341.94H433.195V353.508C433.195 354.036 433.199 354.488 433.207 354.864C433.223 355.24 433.307 355.564 433.459 355.836C433.747 356.348 434.203 356.648 434.827 356.736C435.459 356.824 436.219 356.8 437.107 356.664V358.5ZM428.431 347.304V345.54H437.107V347.304H428.431ZM444.72 358.86C443.432 358.86 442.32 358.568 441.384 357.984C440.456 357.4 439.74 356.592 439.236 355.56C438.732 354.528 438.48 353.344 438.48 352.008C438.48 350.648 438.736 349.456 439.248 348.432C439.76 347.408 440.484 346.612 441.42 346.044C442.356 345.468 443.456 345.18 444.72 345.18C446.016 345.18 447.132 345.472 448.068 346.056C449.004 346.632 449.72 347.436 450.216 348.468C450.72 349.492 450.972 350.672 450.972 352.008C450.972 353.36 450.72 354.552 450.216 355.584C449.712 356.608 448.992 357.412 448.056 357.996C447.12 358.572 446.008 358.86 444.72 358.86ZM444.72 356.832C446.064 356.832 447.064 356.384 447.72 355.488C448.376 354.592 448.704 353.432 448.704 352.008C448.704 350.544 448.372 349.38 447.708 348.516C447.044 347.644 446.048 347.208 444.72 347.208C443.816 347.208 443.072 347.412 442.488 347.82C441.904 348.228 441.468 348.792 441.18 349.512C440.892 350.232 440.748 351.064 440.748 352.008C440.748 353.464 441.084 354.632 441.756 355.512C442.428 356.392 443.416 356.832 444.72 356.832ZM463.338 358.836C462.506 358.836 461.79 358.704 461.19 358.44C460.598 358.176 460.106 357.824 459.714 357.384C459.322 356.944 459.014 356.456 458.79 355.92C458.566 355.384 458.406 354.836 458.31 354.276C458.222 353.716 458.178 353.192 458.178 352.704V345.54H460.338V352.032C460.338 352.64 460.394 353.228 460.506 353.796C460.618 354.364 460.806 354.876 461.07 355.332C461.342 355.788 461.702 356.148 462.15 356.412C462.606 356.676 463.174 356.808 463.854 356.808C464.39 356.808 464.878 356.716 465.318 356.532C465.758 356.348 466.134 356.076 466.446 355.716C466.758 355.348 466.998 354.884 467.166 354.324C467.334 353.764 467.418 353.112 467.418 352.368L468.822 352.8C468.822 354.048 468.594 355.124 468.138 356.028C467.69 356.932 467.054 357.628 466.23 358.116C465.414 358.596 464.45 358.836 463.338 358.836ZM467.658 358.5V355.032H467.418V345.54H469.566V358.5H467.658ZM478.878 358.86C477.662 358.86 476.638 358.56 475.806 357.96C474.974 357.352 474.342 356.532 473.91 355.5C473.486 354.46 473.274 353.296 473.274 352.008C473.274 350.704 473.486 349.536 473.91 348.504C474.342 347.472 474.974 346.66 475.806 346.068C476.646 345.476 477.674 345.18 478.89 345.18C480.09 345.18 481.122 345.48 481.986 346.08C482.858 346.672 483.526 347.484 483.99 348.516C484.454 349.548 484.686 350.712 484.686 352.008C484.686 353.304 484.454 354.468 483.99 355.5C483.526 356.532 482.858 357.352 481.986 357.96C481.122 358.56 480.086 358.86 478.878 358.86ZM472.914 364.26V345.54H474.822V355.08H475.062V364.26H472.914ZM478.614 356.904C479.47 356.904 480.178 356.688 480.738 356.256C481.298 355.824 481.718 355.24 481.998 354.504C482.278 353.76 482.418 352.928 482.418 352.008C482.418 351.096 482.278 350.272 481.998 349.536C481.726 348.8 481.302 348.216 480.726 347.784C480.158 347.352 479.434 347.136 478.554 347.136C477.714 347.136 477.018 347.344 476.466 347.76C475.914 348.168 475.502 348.74 475.23 349.476C474.958 350.204 474.822 351.048 474.822 352.008C474.822 352.952 474.954 353.796 475.218 354.54C475.49 355.276 475.906 355.856 476.466 356.28C477.026 356.696 477.742 356.904 478.614 356.904ZM487.557 358.5V340.86H489.693V358.5H487.557ZM498.813 358.86C497.525 358.86 496.413 358.568 495.477 357.984C494.549 357.4 493.833 356.592 493.329 355.56C492.825 354.528 492.573 353.344 492.573 352.008C492.573 350.648 492.829 349.456 493.341 348.432C493.853 347.408 494.577 346.612 495.513 346.044C496.449 345.468 497.549 345.18 498.813 345.18C500.109 345.18 501.225 345.472 502.161 346.056C503.097 346.632 503.813 347.436 504.309 348.468C504.813 349.492 505.065 350.672 505.065 352.008C505.065 353.36 504.813 354.552 504.309 355.584C503.805 356.608 503.085 357.412 502.149 357.996C501.213 358.572 500.101 358.86 498.813 358.86ZM498.813 356.832C500.157 356.832 501.157 356.384 501.813 355.488C502.469 354.592 502.797 353.432 502.797 352.008C502.797 350.544 502.465 349.38 501.801 348.516C501.137 347.644 500.141 347.208 498.813 347.208C497.909 347.208 497.165 347.412 496.581 347.82C495.997 348.228 495.561 348.792 495.273 349.512C494.985 350.232 494.841 351.064 494.841 352.008C494.841 353.464 495.177 354.632 495.849 355.512C496.521 356.392 497.509 356.832 498.813 356.832ZM511.391 358.86C510.423 358.86 509.611 358.684 508.955 358.332C508.307 357.972 507.815 357.5 507.479 356.916C507.151 356.332 506.987 355.692 506.987 354.996C506.987 354.316 507.115 353.728 507.371 353.232C507.635 352.728 508.003 352.312 508.475 351.984C508.947 351.648 509.511 351.384 510.167 351.192C510.783 351.024 511.471 350.88 512.231 350.76C512.999 350.632 513.775 350.516 514.559 350.412C515.343 350.308 516.075 350.208 516.755 350.112L515.987 350.556C516.011 349.404 515.779 348.552 515.291 348C514.811 347.448 513.979 347.172 512.795 347.172C512.011 347.172 511.323 347.352 510.731 347.712C510.147 348.064 509.735 348.64 509.495 349.44L507.467 348.828C507.779 347.692 508.383 346.8 509.279 346.152C510.175 345.504 511.355 345.18 512.819 345.18C513.995 345.18 515.003 345.392 515.843 345.816C516.691 346.232 517.299 346.864 517.667 347.712C517.851 348.112 517.967 348.548 518.015 349.02C518.063 349.484 518.087 349.972 518.087 350.484V358.5H516.191V355.392L516.635 355.68C516.147 356.728 515.463 357.52 514.583 358.056C513.711 358.592 512.647 358.86 511.391 358.86ZM511.715 357.072C512.483 357.072 513.147 356.936 513.707 356.664C514.275 356.384 514.731 356.02 515.075 355.572C515.419 355.116 515.643 354.62 515.747 354.084C515.867 353.684 515.931 353.24 515.939 352.752C515.955 352.256 515.963 351.876 515.963 351.612L516.707 351.936C516.011 352.032 515.327 352.124 514.655 352.212C513.983 352.3 513.347 352.396 512.747 352.5C512.147 352.596 511.607 352.712 511.127 352.848C510.775 352.96 510.443 353.104 510.131 353.28C509.827 353.456 509.579 353.684 509.387 353.964C509.203 354.236 509.111 354.576 509.111 354.984C509.111 355.336 509.199 355.672 509.375 355.992C509.559 356.312 509.839 356.572 510.215 356.772C510.599 356.972 511.099 357.072 511.715 357.072ZM526.295 358.86C525.087 358.86 524.051 358.56 523.187 357.96C522.323 357.352 521.655 356.532 521.183 355.5C520.719 354.468 520.487 353.304 520.487 352.008C520.487 350.712 520.719 349.548 521.183 348.516C521.655 347.484 522.323 346.672 523.187 346.08C524.051 345.48 525.083 345.18 526.283 345.18C527.507 345.18 528.535 345.476 529.367 346.068C530.199 346.66 530.827 347.472 531.251 348.504C531.683 349.536 531.899 350.704 531.899 352.008C531.899 353.296 531.683 354.46 531.251 355.5C530.827 356.532 530.199 357.352 529.367 357.96C528.535 358.56 527.511 358.86 526.295 358.86ZM526.559 356.904C527.431 356.904 528.147 356.696 528.707 356.28C529.267 355.856 529.679 355.276 529.943 354.54C530.215 353.796 530.351 352.952 530.351 352.008C530.351 351.048 530.215 350.204 529.943 349.476C529.679 348.74 529.271 348.168 528.719 347.76C528.167 347.344 527.467 347.136 526.619 347.136C525.739 347.136 525.011 347.352 524.435 347.784C523.867 348.216 523.443 348.8 523.163 349.536C522.891 350.272 522.755 351.096 522.755 352.008C522.755 352.928 522.895 353.76 523.175 354.504C523.455 355.24 523.875 355.824 524.435 356.256C525.003 356.688 525.711 356.904 526.559 356.904ZM530.351 358.5V348.96H530.111V341.22H532.259V358.5H530.351ZM546.558 358.86C545.334 358.86 544.23 358.652 543.246 358.236C542.27 357.82 541.462 357.228 540.822 356.46C540.19 355.684 539.778 354.768 539.586 353.712L541.794 353.364C542.074 354.452 542.654 355.304 543.534 355.92C544.422 356.528 545.466 356.832 546.666 356.832C547.442 356.832 548.142 356.712 548.766 356.472C549.398 356.224 549.898 355.872 550.266 355.416C550.634 354.96 550.818 354.42 550.818 353.796C550.818 353.412 550.75 353.084 550.614 352.812C550.486 352.532 550.306 352.296 550.074 352.104C549.85 351.904 549.594 351.736 549.306 351.6C549.018 351.464 548.718 351.352 548.406 351.264L544.002 349.956C543.522 349.812 543.058 349.632 542.61 349.416C542.162 349.192 541.762 348.916 541.41 348.588C541.058 348.252 540.778 347.852 540.57 347.388C540.362 346.916 540.258 346.36 540.258 345.72C540.258 344.696 540.522 343.824 541.05 343.104C541.586 342.376 542.31 341.82 543.222 341.436C544.134 341.052 545.162 340.864 546.306 340.872C547.466 340.88 548.502 341.088 549.414 341.496C550.334 341.896 551.094 342.472 551.694 343.224C552.302 343.976 552.71 344.876 552.918 345.924L550.65 346.32C550.53 345.616 550.262 345.012 549.846 344.508C549.438 343.996 548.926 343.604 548.31 343.332C547.694 343.052 547.018 342.908 546.282 342.9C545.578 342.892 544.942 343.004 544.374 343.236C543.806 343.468 543.354 343.792 543.018 344.208C542.682 344.616 542.514 345.088 542.514 345.624C542.514 346.152 542.666 346.58 542.97 346.908C543.274 347.228 543.646 347.484 544.086 347.676C544.534 347.86 544.97 348.012 545.394 348.132L548.682 349.08C549.058 349.184 549.49 349.328 549.978 349.512C550.474 349.696 550.954 349.956 551.418 350.292C551.882 350.62 552.266 351.06 552.57 351.612C552.874 352.156 553.026 352.844 553.026 353.676C553.026 354.508 552.858 355.248 552.522 355.896C552.194 356.544 551.734 357.088 551.142 357.528C550.55 357.96 549.862 358.288 549.078 358.512C548.294 358.744 547.454 358.86 546.558 358.86ZM559.299 358.5L553.515 341.22H555.735L560.763 356.232L565.839 341.22H568.059L562.275 358.5H559.299ZM576.391 358.86C575.207 358.86 574.127 358.652 573.151 358.236C572.175 357.82 571.335 357.224 570.631 356.448C569.927 355.664 569.383 354.72 568.999 353.616C568.623 352.504 568.435 351.252 568.435 349.86C568.435 348.02 568.763 346.428 569.419 345.084C570.075 343.74 570.999 342.704 572.191 341.976C573.383 341.24 574.783 340.872 576.391 340.872C578.327 340.872 579.887 341.324 581.071 342.228C582.255 343.124 583.071 344.352 583.519 345.912L581.359 346.356C580.999 345.308 580.407 344.472 579.583 343.848C578.759 343.224 577.731 342.912 576.499 342.912C575.211 342.904 574.139 343.192 573.283 343.776C572.435 344.352 571.795 345.164 571.363 346.212C570.931 347.26 570.711 348.476 570.703 349.86C570.695 351.236 570.907 352.444 571.339 353.484C571.771 354.524 572.415 355.34 573.271 355.932C574.135 356.516 575.211 356.812 576.499 356.82C577.611 356.828 578.547 356.616 579.307 356.184C580.067 355.752 580.655 355.128 581.071 354.312C581.487 353.496 581.739 352.516 581.827 351.372H578.155V349.608H584.083C584.107 349.768 584.119 349.96 584.119 350.184C584.127 350.4 584.131 350.548 584.131 350.628C584.131 352.204 583.835 353.616 583.243 354.864C582.659 356.104 581.791 357.08 580.639 357.792C579.495 358.504 578.079 358.86 576.391 358.86ZM585.092 361.188L585.224 360.192C585.56 360.216 585.812 360.152 585.98 360C586.148 359.848 586.256 359.64 586.304 359.376C586.352 359.112 586.36 358.82 586.328 358.5H585.092V355.788H587.444V358.86C587.444 359.7 587.236 360.332 586.82 360.756C586.412 361.18 585.836 361.324 585.092 361.188ZM596.817 358.5V341.22H603.645C603.813 341.22 604.013 341.228 604.245 341.244C604.477 341.252 604.701 341.276 604.917 341.316C605.853 341.46 606.637 341.78 607.269 342.276C607.909 342.772 608.389 343.4 608.709 344.16C609.029 344.912 609.189 345.748 609.189 346.668C609.189 347.58 609.025 348.416 608.697 349.176C608.377 349.928 607.897 350.556 607.257 351.06C606.625 351.556 605.845 351.876 604.917 352.02C604.701 352.052 604.477 352.076 604.245 352.092C604.013 352.108 603.813 352.116 603.645 352.116H598.953V358.5H596.817ZM598.953 350.088H603.573C603.725 350.088 603.897 350.08 604.089 350.064C604.289 350.048 604.477 350.02 604.653 349.98C605.205 349.852 605.653 349.62 605.997 349.284C606.349 348.94 606.605 348.54 606.765 348.084C606.925 347.62 607.005 347.148 607.005 346.668C607.005 346.188 606.925 345.72 606.765 345.264C606.605 344.8 606.349 344.396 605.997 344.052C605.653 343.708 605.205 343.476 604.653 343.356C604.477 343.308 604.289 343.28 604.089 343.272C603.897 343.256 603.725 343.248 603.573 343.248H598.953V350.088ZM611.582 358.5V341.22H613.742L622.754 354.72V341.22H624.914V358.5H622.754L613.742 344.988V358.5H611.582ZM635.266 358.86C634.082 358.86 633.002 358.652 632.026 358.236C631.05 357.82 630.21 357.224 629.506 356.448C628.802 355.664 628.258 354.72 627.874 353.616C627.498 352.504 627.31 351.252 627.31 349.86C627.31 348.02 627.638 346.428 628.294 345.084C628.95 343.74 629.874 342.704 631.066 341.976C632.258 341.24 633.658 340.872 635.266 340.872C637.202 340.872 638.762 341.324 639.946 342.228C641.13 343.124 641.946 344.352 642.394 345.912L640.234 346.356C639.874 345.308 639.282 344.472 638.458 343.848C637.634 343.224 636.606 342.912 635.374 342.912C634.086 342.904 633.014 343.192 632.158 343.776C631.31 344.352 630.67 345.164 630.238 346.212C629.806 347.26 629.586 348.476 629.578 349.86C629.57 351.236 629.782 352.444 630.214 353.484C630.646 354.524 631.29 355.34 632.146 355.932C633.01 356.516 634.086 356.812 635.374 356.82C636.486 356.828 637.422 356.616 638.182 356.184C638.942 355.752 639.53 355.128 639.946 354.312C640.362 353.496 640.614 352.516 640.702 351.372H637.03V349.608H642.958C642.982 349.768 642.994 349.96 642.994 350.184C643.002 350.4 643.006 350.548 643.006 350.628C643.006 352.204 642.71 353.616 642.118 354.864C641.534 356.104 640.666 357.08 639.514 357.792C638.37 358.504 636.954 358.86 635.266 358.86ZM643.967 361.188L644.099 360.192C644.435 360.216 644.687 360.152 644.855 360C645.023 359.848 645.131 359.64 645.179 359.376C645.227 359.112 645.235 358.82 645.203 358.5H643.967V355.788H646.319V358.86C646.319 359.7 646.111 360.332 645.695 360.756C645.287 361.18 644.711 361.324 643.967 361.188ZM658.812 358.848C657.604 358.848 656.58 358.52 655.74 357.864C654.9 357.208 654.324 356.328 654.012 355.224L656.136 354.72C656.264 355.304 656.572 355.8 657.06 356.208C657.556 356.616 658.124 356.82 658.764 356.82C659.18 356.82 659.604 356.72 660.036 356.52C660.468 356.312 660.8 355.976 661.032 355.512C661.192 355.192 661.284 354.84 661.308 354.456C661.332 354.064 661.344 353.604 661.344 353.076V341.22H663.504V353.076C663.504 353.572 663.5 354.016 663.492 354.408C663.492 354.8 663.452 355.176 663.372 355.536C663.3 355.888 663.156 356.248 662.94 356.616C662.508 357.376 661.928 357.94 661.2 358.308C660.48 358.668 659.684 358.848 658.812 358.848ZM667.106 358.5V341.22H673.934C674.102 341.22 674.302 341.228 674.534 341.244C674.766 341.252 674.99 341.276 675.206 341.316C676.142 341.46 676.926 341.78 677.558 342.276C678.198 342.772 678.678 343.4 678.998 344.16C679.318 344.912 679.478 345.748 679.478 346.668C679.478 347.58 679.314 348.416 678.986 349.176C678.666 349.928 678.186 350.556 677.546 351.06C676.914 351.556 676.134 351.876 675.206 352.02C674.99 352.052 674.766 352.076 674.534 352.092C674.302 352.108 674.102 352.116 673.934 352.116H669.242V358.5H667.106ZM669.242 350.088H673.862C674.014 350.088 674.186 350.08 674.378 350.064C674.578 350.048 674.766 350.02 674.942 349.98C675.494 349.852 675.942 349.62 676.286 349.284C676.638 348.94 676.894 348.54 677.054 348.084C677.214 347.62 677.294 347.148 677.294 346.668C677.294 346.188 677.214 345.72 677.054 345.264C676.894 344.8 676.638 344.396 676.286 344.052C675.942 343.708 675.494 343.476 674.942 343.356C674.766 343.308 674.578 343.28 674.378 343.272C674.186 343.256 674.014 343.248 673.862 343.248H669.242V350.088ZM688.867 358.86C687.683 358.86 686.603 358.652 685.627 358.236C684.651 357.82 683.811 357.224 683.107 356.448C682.403 355.664 681.859 354.72 681.475 353.616C681.099 352.504 680.911 351.252 680.911 349.86C680.911 348.02 681.239 346.428 681.895 345.084C682.551 343.74 683.475 342.704 684.667 341.976C685.859 341.24 687.259 340.872 688.867 340.872C690.803 340.872 692.363 341.324 693.547 342.228C694.731 343.124 695.547 344.352 695.995 345.912L693.835 346.356C693.475 345.308 692.883 344.472 692.059 343.848C691.235 343.224 690.207 342.912 688.975 342.912C687.687 342.904 686.615 343.192 685.759 343.776C684.911 344.352 684.271 345.164 683.839 346.212C683.407 347.26 683.187 348.476 683.179 349.86C683.171 351.236 683.383 352.444 683.815 353.484C684.247 354.524 684.891 355.34 685.747 355.932C686.611 356.516 687.687 356.812 688.975 356.82C690.087 356.828 691.023 356.616 691.783 356.184C692.543 355.752 693.131 355.128 693.547 354.312C693.963 353.496 694.215 352.516 694.303 351.372H690.631V349.608H696.559C696.583 349.768 696.595 349.96 696.595 350.184C696.603 350.4 696.607 350.548 696.607 350.628C696.607 352.204 696.311 353.616 695.719 354.864C695.135 356.104 694.267 357.08 693.115 357.792C691.971 358.504 690.555 358.86 688.867 358.86Z" fill="#7337FF"/>
<path d="M704.193 358.5V356.148H706.545V358.5H704.193Z" fill="black" fill-opacity="0.53"/>
<defs>
<linearGradient id="paint0_linear_236_523" x1="579.426" y1="211.499" x2="495.613" y2="295.312" gradientUnits="userSpaceOnUse">
<stop stop-color="#0E18DC"/>
<stop offset="0.125" stop-color="#2618DD"/>
<stop offset="0.548" stop-color="#7317DF"/>
<stop offset="0.85" stop-color="#A316E0"/>
<stop offset="1" stop-color="#B516E1"/>
</linearGradient>
</defs>
</svg>
