<svg width="1077" height="542" viewBox="0 0 1077 542" fill="none" xmlns="http://www.w3.org/2000/svg">
<rect width="1077" height="542" rx="8" fill="white" fill-opacity="0.87"/>
<rect x="0.5" y="0.5" width="1076" height="541" rx="7.5" stroke="black" stroke-opacity="0.1"/>
<path d="M586.589 219.483C580.508 215.258 573.28 212.995 565.875 213C564.665 213 563.505 213.481 562.649 214.336C561.793 215.192 561.313 216.352 561.313 217.563C561.313 218.773 561.793 219.933 562.649 220.789C563.505 221.644 564.665 222.125 565.875 222.125C571.792 222.128 577.547 224.06 582.268 227.627C585.812 230.298 588.66 233.782 590.572 237.787C592.484 241.791 593.402 246.197 593.25 250.632C593.335 257.525 590.899 264.211 586.401 269.435C581.903 274.659 575.652 278.061 568.822 279.001C564.61 279.453 560.351 278.918 556.381 277.441C553.966 276.531 551.341 276.335 548.818 276.877C546.295 277.419 543.982 278.676 542.155 280.498C538.179 284.487 533.28 287.434 527.893 289.076C522.506 290.718 516.796 291.005 511.271 289.911C505.747 288.818 500.577 286.377 496.222 282.806C491.866 279.236 488.459 274.645 486.303 269.442C484.148 264.239 483.309 258.584 483.863 252.979C484.417 247.374 486.345 241.993 489.478 237.312C492.61 232.632 496.85 228.797 501.82 226.147C506.79 223.498 512.337 222.116 517.969 222.125C518.899 222.347 519.866 222.362 520.803 222.167C521.739 221.972 522.62 221.573 523.385 220.998C523.836 220.571 524.196 220.056 524.442 219.485C524.687 218.914 524.813 218.298 524.813 217.677C524.804 217.039 524.665 216.41 524.404 215.828C524.143 215.247 523.766 214.724 523.296 214.294C522.826 213.863 522.273 213.533 521.671 213.324C521.068 213.115 520.43 213.031 519.794 213.078C519.182 213.037 518.571 213 517.969 213C510.835 212.991 503.81 214.743 497.516 218.1C491.222 221.457 485.854 226.315 481.888 232.245C477.921 238.174 475.48 244.99 474.78 252.089C474.079 259.188 475.142 266.35 477.873 272.94C480.605 279.529 484.92 285.343 490.437 289.865C495.954 294.387 502.502 297.478 509.499 298.863C516.497 300.248 523.728 299.884 530.552 297.804C537.375 295.724 543.58 291.993 548.615 286.94C549.208 286.367 549.951 285.973 550.759 285.804C551.566 285.635 552.405 285.699 553.178 285.986C558.471 287.982 564.162 288.697 569.785 288.071C578.845 286.871 587.156 282.405 593.157 275.511C599.157 268.618 602.435 259.771 602.375 250.632C602.527 244.539 601.165 238.503 598.409 233.067C595.654 227.631 591.593 222.963 586.589 219.483ZM553.524 211.663L547.625 205.764V235.813C547.625 237.023 547.144 238.183 546.289 239.039C545.433 239.894 544.273 240.375 543.063 240.375C541.853 240.375 540.692 239.894 539.836 239.039C538.981 238.183 538.5 237.023 538.5 235.813V205.764L532.601 211.663C531.74 212.494 530.588 212.954 529.392 212.944C528.195 212.933 527.051 212.454 526.205 211.608C525.359 210.762 524.879 209.617 524.869 208.421C524.858 207.225 525.318 206.072 526.149 205.212L539.837 191.524C540.697 190.674 541.858 190.197 543.067 190.197C544.277 190.197 545.437 190.674 546.297 191.524L559.985 205.212C560.816 206.072 561.276 207.225 561.265 208.421C561.255 209.617 560.775 210.762 559.929 211.608C559.083 212.454 557.939 212.933 556.743 212.944C555.547 212.954 554.394 212.494 553.534 211.663H553.524Z" fill="url(#paint0_linear_236_523)"/>
<path d="M438.593 358.86C436.873 358.86 435.413 358.48 434.213 357.72C433.013 356.96 432.097 355.904 431.465 354.552C430.841 353.2 430.529 351.636 430.529 349.86C430.529 348.084 430.841 346.52 431.465 345.168C432.097 343.816 433.013 342.76 434.213 342C435.413 341.24 436.873 340.86 438.593 340.86C440.593 340.86 442.237 341.368 443.525 342.384C444.821 343.4 445.713 344.768 446.201 346.488L444.029 347.064C443.677 345.776 443.049 344.76 442.145 344.016C441.241 343.272 440.057 342.9 438.593 342.9C437.305 342.9 436.233 343.192 435.377 343.776C434.521 344.36 433.877 345.176 433.445 346.224C433.013 347.264 432.793 348.476 432.785 349.86C432.777 351.236 432.989 352.448 433.421 353.496C433.853 354.536 434.501 355.352 435.365 355.944C436.229 356.528 437.305 356.82 438.593 356.82C440.057 356.82 441.241 356.448 442.145 355.704C443.049 354.952 443.677 353.936 444.029 352.656L446.201 353.232C445.713 354.944 444.821 356.312 443.525 357.336C442.237 358.352 440.593 358.86 438.593 358.86ZM449.072 358.5V340.86H451.208V358.5H449.072ZM455.049 343.248V341.04H457.185V343.248H455.049ZM455.049 358.5V345.54H457.185V358.5H455.049ZM466.245 358.86C464.933 358.86 463.817 358.568 462.897 357.984C461.985 357.392 461.289 356.58 460.809 355.548C460.329 354.516 460.081 353.34 460.065 352.02C460.081 350.668 460.333 349.48 460.821 348.456C461.317 347.424 462.025 346.62 462.945 346.044C463.865 345.468 464.973 345.18 466.269 345.18C467.637 345.18 468.813 345.516 469.797 346.188C470.789 346.86 471.453 347.78 471.789 348.948L469.677 349.584C469.405 348.832 468.961 348.248 468.345 347.832C467.737 347.416 467.037 347.208 466.245 347.208C465.357 347.208 464.625 347.416 464.049 347.832C463.473 348.24 463.045 348.808 462.765 349.536C462.485 350.256 462.341 351.084 462.333 352.02C462.349 353.46 462.681 354.624 463.329 355.512C463.985 356.392 464.957 356.832 466.245 356.832C467.093 356.832 467.797 356.64 468.357 356.256C468.917 355.864 469.341 355.3 469.629 354.564L471.789 355.128C471.341 356.336 470.641 357.26 469.689 357.9C468.737 358.54 467.589 358.86 466.245 358.86ZM474.227 358.5L474.239 341.22H476.399V351.78L481.835 345.54H484.607L478.883 352.02L485.279 358.5H482.291L476.399 352.26V358.5H474.227ZM498.514 358.5C497.746 358.652 496.986 358.712 496.234 358.68C495.49 358.656 494.826 358.508 494.242 358.236C493.658 357.956 493.214 357.524 492.91 356.94C492.654 356.428 492.514 355.912 492.49 355.392C492.474 354.864 492.466 354.268 492.466 353.604V341.94H494.602V353.508C494.602 354.036 494.606 354.488 494.614 354.864C494.63 355.24 494.714 355.564 494.866 355.836C495.154 356.348 495.61 356.648 496.234 356.736C496.866 356.824 497.626 356.8 498.514 356.664V358.5ZM489.838 347.304V345.54H498.514V347.304H489.838ZM506.126 358.86C504.838 358.86 503.726 358.568 502.79 357.984C501.862 357.4 501.146 356.592 500.642 355.56C500.138 354.528 499.886 353.344 499.886 352.008C499.886 350.648 500.142 349.456 500.654 348.432C501.166 347.408 501.89 346.612 502.826 346.044C503.762 345.468 504.862 345.18 506.126 345.18C507.422 345.18 508.538 345.472 509.474 346.056C510.41 346.632 511.126 347.436 511.622 348.468C512.126 349.492 512.378 350.672 512.378 352.008C512.378 353.36 512.126 354.552 511.622 355.584C511.118 356.608 510.398 357.412 509.462 357.996C508.526 358.572 507.414 358.86 506.126 358.86ZM506.126 356.832C507.47 356.832 508.47 356.384 509.126 355.488C509.782 354.592 510.11 353.432 510.11 352.008C510.11 350.544 509.778 349.38 509.114 348.516C508.45 347.644 507.454 347.208 506.126 347.208C505.222 347.208 504.478 347.412 503.894 347.82C503.31 348.228 502.874 348.792 502.586 349.512C502.298 350.232 502.154 351.064 502.154 352.008C502.154 353.464 502.49 354.632 503.162 355.512C503.834 356.392 504.822 356.832 506.126 356.832ZM524.745 358.836C523.913 358.836 523.197 358.704 522.597 358.44C522.005 358.176 521.513 357.824 521.121 357.384C520.729 356.944 520.421 356.456 520.197 355.92C519.973 355.384 519.813 354.836 519.717 354.276C519.629 353.716 519.585 353.192 519.585 352.704V345.54H521.745V352.032C521.745 352.64 521.801 353.228 521.913 353.796C522.025 354.364 522.213 354.876 522.477 355.332C522.749 355.788 523.109 356.148 523.557 356.412C524.013 356.676 524.581 356.808 525.261 356.808C525.797 356.808 526.285 356.716 526.725 356.532C527.165 356.348 527.541 356.076 527.853 355.716C528.165 355.348 528.405 354.884 528.573 354.324C528.741 353.764 528.825 353.112 528.825 352.368L530.229 352.8C530.229 354.048 530.001 355.124 529.545 356.028C529.097 356.932 528.461 357.628 527.637 358.116C526.821 358.596 525.857 358.836 524.745 358.836ZM529.065 358.5V355.032H528.825V345.54H530.973V358.5H529.065ZM540.284 358.86C539.068 358.86 538.044 358.56 537.212 357.96C536.38 357.352 535.748 356.532 535.316 355.5C534.892 354.46 534.68 353.296 534.68 352.008C534.68 350.704 534.892 349.536 535.316 348.504C535.748 347.472 536.38 346.66 537.212 346.068C538.052 345.476 539.08 345.18 540.296 345.18C541.496 345.18 542.528 345.48 543.392 346.08C544.264 346.672 544.932 347.484 545.396 348.516C545.86 349.548 546.092 350.712 546.092 352.008C546.092 353.304 545.86 354.468 545.396 355.5C544.932 356.532 544.264 357.352 543.392 357.96C542.528 358.56 541.492 358.86 540.284 358.86ZM534.32 364.26V345.54H536.228V355.08H536.468V364.26H534.32ZM540.02 356.904C540.876 356.904 541.584 356.688 542.144 356.256C542.704 355.824 543.124 355.24 543.404 354.504C543.684 353.76 543.824 352.928 543.824 352.008C543.824 351.096 543.684 350.272 543.404 349.536C543.132 348.8 542.708 348.216 542.132 347.784C541.564 347.352 540.84 347.136 539.96 347.136C539.12 347.136 538.424 347.344 537.872 347.76C537.32 348.168 536.908 348.74 536.636 349.476C536.364 350.204 536.228 351.048 536.228 352.008C536.228 352.952 536.36 353.796 536.624 354.54C536.896 355.276 537.312 355.856 537.872 356.28C538.432 356.696 539.148 356.904 540.02 356.904ZM548.963 358.5V340.86H551.099V358.5H548.963ZM560.22 358.86C558.932 358.86 557.82 358.568 556.884 357.984C555.956 357.4 555.24 356.592 554.736 355.56C554.232 354.528 553.98 353.344 553.98 352.008C553.98 350.648 554.236 349.456 554.748 348.432C555.26 347.408 555.984 346.612 556.92 346.044C557.856 345.468 558.956 345.18 560.22 345.18C561.516 345.18 562.632 345.472 563.568 346.056C564.504 346.632 565.22 347.436 565.716 348.468C566.22 349.492 566.472 350.672 566.472 352.008C566.472 353.36 566.22 354.552 565.716 355.584C565.212 356.608 564.492 357.412 563.556 357.996C562.62 358.572 561.508 358.86 560.22 358.86ZM560.22 356.832C561.564 356.832 562.564 356.384 563.22 355.488C563.876 354.592 564.204 353.432 564.204 352.008C564.204 350.544 563.872 349.38 563.208 348.516C562.544 347.644 561.548 347.208 560.22 347.208C559.316 347.208 558.572 347.412 557.988 347.82C557.404 348.228 556.968 348.792 556.68 349.512C556.392 350.232 556.248 351.064 556.248 352.008C556.248 353.464 556.584 354.632 557.256 355.512C557.928 356.392 558.916 356.832 560.22 356.832ZM572.798 358.86C571.83 358.86 571.018 358.684 570.362 358.332C569.714 357.972 569.222 357.5 568.886 356.916C568.558 356.332 568.394 355.692 568.394 354.996C568.394 354.316 568.522 353.728 568.778 353.232C569.042 352.728 569.41 352.312 569.882 351.984C570.354 351.648 570.918 351.384 571.574 351.192C572.19 351.024 572.878 350.88 573.638 350.76C574.406 350.632 575.182 350.516 575.966 350.412C576.75 350.308 577.482 350.208 578.162 350.112L577.394 350.556C577.418 349.404 577.186 348.552 576.698 348C576.218 347.448 575.386 347.172 574.202 347.172C573.418 347.172 572.73 347.352 572.138 347.712C571.554 348.064 571.142 348.64 570.902 349.44L568.874 348.828C569.186 347.692 569.79 346.8 570.686 346.152C571.582 345.504 572.762 345.18 574.226 345.18C575.402 345.18 576.41 345.392 577.25 345.816C578.098 346.232 578.706 346.864 579.074 347.712C579.258 348.112 579.374 348.548 579.422 349.02C579.47 349.484 579.494 349.972 579.494 350.484V358.5H577.598V355.392L578.042 355.68C577.554 356.728 576.87 357.52 575.99 358.056C575.118 358.592 574.054 358.86 572.798 358.86ZM573.122 357.072C573.89 357.072 574.554 356.936 575.114 356.664C575.682 356.384 576.138 356.02 576.482 355.572C576.826 355.116 577.05 354.62 577.154 354.084C577.274 353.684 577.338 353.24 577.346 352.752C577.362 352.256 577.37 351.876 577.37 351.612L578.114 351.936C577.418 352.032 576.734 352.124 576.062 352.212C575.39 352.3 574.754 352.396 574.154 352.5C573.554 352.596 573.014 352.712 572.534 352.848C572.182 352.96 571.85 353.104 571.538 353.28C571.234 353.456 570.986 353.684 570.794 353.964C570.61 354.236 570.518 354.576 570.518 354.984C570.518 355.336 570.606 355.672 570.782 355.992C570.966 356.312 571.246 356.572 571.622 356.772C572.006 356.972 572.506 357.072 573.122 357.072ZM587.702 358.86C586.494 358.86 585.458 358.56 584.594 357.96C583.73 357.352 583.062 356.532 582.59 355.5C582.126 354.468 581.894 353.304 581.894 352.008C581.894 350.712 582.126 349.548 582.59 348.516C583.062 347.484 583.73 346.672 584.594 346.08C585.458 345.48 586.49 345.18 587.69 345.18C588.914 345.18 589.942 345.476 590.774 346.068C591.606 346.66 592.234 347.472 592.658 348.504C593.09 349.536 593.306 350.704 593.306 352.008C593.306 353.296 593.09 354.46 592.658 355.5C592.234 356.532 591.606 357.352 590.774 357.96C589.942 358.56 588.918 358.86 587.702 358.86ZM587.966 356.904C588.838 356.904 589.554 356.696 590.114 356.28C590.674 355.856 591.086 355.276 591.35 354.54C591.622 353.796 591.758 352.952 591.758 352.008C591.758 351.048 591.622 350.204 591.35 349.476C591.086 348.74 590.678 348.168 590.126 347.76C589.574 347.344 588.874 347.136 588.026 347.136C587.146 347.136 586.418 347.352 585.842 347.784C585.274 348.216 584.85 348.8 584.57 349.536C584.298 350.272 584.162 351.096 584.162 352.008C584.162 352.928 584.302 353.76 584.582 354.504C584.862 355.24 585.282 355.824 585.842 356.256C586.41 356.688 587.118 356.904 587.966 356.904ZM591.758 358.5V348.96H591.518V341.22H593.666V358.5H591.758ZM601.832 358.5V341.22H608.66C608.828 341.22 609.028 341.228 609.26 341.244C609.492 341.252 609.716 341.276 609.932 341.316C610.868 341.46 611.652 341.78 612.284 342.276C612.924 342.772 613.404 343.4 613.724 344.16C614.044 344.912 614.204 345.748 614.204 346.668C614.204 347.58 614.04 348.416 613.712 349.176C613.392 349.928 612.912 350.556 612.272 351.06C611.64 351.556 610.86 351.876 609.932 352.02C609.716 352.052 609.492 352.076 609.26 352.092C609.028 352.108 608.828 352.116 608.66 352.116H603.968V358.5H601.832ZM603.968 350.088H608.588C608.74 350.088 608.912 350.08 609.104 350.064C609.304 350.048 609.492 350.02 609.668 349.98C610.22 349.852 610.668 349.62 611.012 349.284C611.364 348.94 611.62 348.54 611.78 348.084C611.94 347.62 612.02 347.148 612.02 346.668C612.02 346.188 611.94 345.72 611.78 345.264C611.62 344.8 611.364 344.396 611.012 344.052C610.668 343.708 610.22 343.476 609.668 343.356C609.492 343.308 609.304 343.28 609.104 343.272C608.912 343.256 608.74 343.248 608.588 343.248H603.968V350.088ZM616.598 358.5V341.22H621.926C622.102 341.22 622.41 341.224 622.85 341.232C623.29 341.24 623.71 341.272 624.11 341.328C625.446 341.504 626.562 341.992 627.458 342.792C628.362 343.584 629.042 344.592 629.498 345.816C629.954 347.04 630.182 348.388 630.182 349.86C630.182 351.332 629.954 352.68 629.498 353.904C629.042 355.128 628.362 356.14 627.458 356.94C626.562 357.732 625.446 358.216 624.11 358.392C623.71 358.44 623.286 358.472 622.838 358.488C622.398 358.496 622.094 358.5 621.926 358.5H616.598ZM618.794 356.46H621.926C622.23 356.46 622.57 356.452 622.946 356.436C623.322 356.412 623.65 356.376 623.93 356.328C624.874 356.152 625.638 355.756 626.222 355.14C626.806 354.524 627.234 353.756 627.506 352.836C627.778 351.916 627.914 350.924 627.914 349.86C627.914 348.772 627.774 347.768 627.494 346.848C627.222 345.928 626.794 345.164 626.21 344.556C625.626 343.948 624.866 343.56 623.93 343.392C623.65 343.336 623.318 343.3 622.934 343.284C622.55 343.268 622.214 343.26 621.926 343.26H618.794V356.46ZM632.934 358.5V341.22H643.014V343.356H635.07V348.792H641.574V350.928H635.07V358.5H632.934Z" fill="#7337FF"/>
<path d="M642.787 358.5V356.148H645.139V358.5H642.787Z" fill="black" fill-opacity="0.53"/>
<defs>
<linearGradient id="paint0_linear_236_523" x1="579.426" y1="211.499" x2="495.613" y2="295.312" gradientUnits="userSpaceOnUse">
<stop stop-color="#0E18DC"/>
<stop offset="0.125" stop-color="#2618DD"/>
<stop offset="0.548" stop-color="#7317DF"/>
<stop offset="0.85" stop-color="#A316E0"/>
<stop offset="1" stop-color="#B516E1"/>
</linearGradient>
</defs>
</svg>
