<svg width="1077" height="542" viewBox="0 0 1077 542" fill="none" xmlns="http://www.w3.org/2000/svg">
<rect width="1077" height="542" rx="8" fill="white" fill-opacity="0.87"/>
<rect x="0.5" y="0.5" width="1076" height="541" rx="7.5" stroke="black" stroke-opacity="0.1"/>
<path d="M586.589 219.483C580.508 215.258 573.28 212.995 565.875 213C564.665 213 563.505 213.481 562.649 214.336C561.793 215.192 561.313 216.352 561.313 217.563C561.313 218.773 561.793 219.933 562.649 220.789C563.505 221.644 564.665 222.125 565.875 222.125C571.792 222.128 577.547 224.06 582.268 227.627C585.812 230.298 588.66 233.782 590.572 237.787C592.484 241.791 593.402 246.197 593.25 250.632C593.335 257.525 590.899 264.211 586.401 269.435C581.903 274.659 575.652 278.061 568.822 279.001C564.61 279.453 560.351 278.918 556.381 277.441C553.966 276.531 551.341 276.335 548.818 276.877C546.295 277.419 543.982 278.676 542.155 280.498C538.179 284.487 533.28 287.434 527.893 289.076C522.506 290.718 516.796 291.005 511.271 289.911C505.747 288.818 500.577 286.377 496.222 282.806C491.866 279.236 488.459 274.645 486.303 269.442C484.148 264.239 483.309 258.584 483.863 252.979C484.417 247.374 486.345 241.993 489.478 237.312C492.61 232.632 496.85 228.797 501.82 226.147C506.79 223.498 512.337 222.116 517.969 222.125C518.899 222.347 519.866 222.362 520.803 222.167C521.739 221.972 522.62 221.573 523.385 220.998C523.836 220.571 524.196 220.056 524.442 219.485C524.687 218.914 524.813 218.298 524.813 217.677C524.804 217.039 524.665 216.41 524.404 215.828C524.143 215.247 523.766 214.724 523.296 214.294C522.826 213.863 522.273 213.533 521.671 213.324C521.068 213.115 520.43 213.031 519.794 213.078C519.182 213.037 518.571 213 517.969 213C510.835 212.991 503.81 214.743 497.516 218.1C491.222 221.457 485.854 226.315 481.888 232.245C477.921 238.174 475.48 244.99 474.78 252.089C474.079 259.188 475.142 266.35 477.873 272.94C480.605 279.529 484.92 285.343 490.437 289.865C495.954 294.387 502.502 297.478 509.499 298.863C516.497 300.248 523.728 299.884 530.552 297.804C537.375 295.724 543.58 291.993 548.615 286.94C549.208 286.367 549.951 285.973 550.759 285.804C551.566 285.635 552.405 285.699 553.178 285.986C558.471 287.982 564.162 288.697 569.785 288.071C578.845 286.871 587.156 282.405 593.157 275.511C599.157 268.618 602.435 259.771 602.375 250.632C602.527 244.539 601.165 238.503 598.409 233.067C595.654 227.631 591.593 222.963 586.589 219.483ZM553.524 211.663L547.625 205.764V235.813C547.625 237.023 547.144 238.183 546.289 239.039C545.433 239.894 544.273 240.375 543.063 240.375C541.853 240.375 540.692 239.894 539.836 239.039C538.981 238.183 538.5 237.023 538.5 235.813V205.764L532.601 211.663C531.74 212.494 530.588 212.954 529.392 212.944C528.195 212.933 527.051 212.454 526.205 211.608C525.359 210.762 524.879 209.617 524.869 208.421C524.858 207.225 525.318 206.072 526.149 205.212L539.837 191.524C540.697 190.674 541.858 190.197 543.067 190.197C544.277 190.197 545.437 190.674 546.297 191.524L559.985 205.212C560.816 206.072 561.276 207.225 561.265 208.421C561.255 209.617 560.775 210.762 559.929 211.608C559.083 212.454 557.939 212.933 556.743 212.944C555.547 212.954 554.394 212.494 553.534 211.663H553.524Z" fill="url(#paint0_linear_236_523)"/>
<path d="M428.339 358.86C426.619 358.86 425.159 358.48 423.959 357.72C422.759 356.96 421.843 355.904 421.211 354.552C420.587 353.2 420.275 351.636 420.275 349.86C420.275 348.084 420.587 346.52 421.211 345.168C421.843 343.816 422.759 342.76 423.959 342C425.159 341.24 426.619 340.86 428.339 340.86C430.339 340.86 431.983 341.368 433.271 342.384C434.567 343.4 435.459 344.768 435.947 346.488L433.775 347.064C433.423 345.776 432.795 344.76 431.891 344.016C430.987 343.272 429.803 342.9 428.339 342.9C427.051 342.9 425.979 343.192 425.123 343.776C424.267 344.36 423.623 345.176 423.191 346.224C422.759 347.264 422.539 348.476 422.531 349.86C422.523 351.236 422.735 352.448 423.167 353.496C423.599 354.536 424.247 355.352 425.111 355.944C425.975 356.528 427.051 356.82 428.339 356.82C429.803 356.82 430.987 356.448 431.891 355.704C432.795 354.952 433.423 353.936 433.775 352.656L435.947 353.232C435.459 354.944 434.567 356.312 433.271 357.336C431.983 358.352 430.339 358.86 428.339 358.86ZM438.818 358.5V340.86H440.954V358.5H438.818ZM444.795 343.248V341.04H446.931V343.248H444.795ZM444.795 358.5V345.54H446.931V358.5H444.795ZM455.992 358.86C454.68 358.86 453.564 358.568 452.644 357.984C451.732 357.392 451.036 356.58 450.556 355.548C450.076 354.516 449.828 353.34 449.812 352.02C449.828 350.668 450.08 349.48 450.568 348.456C451.064 347.424 451.772 346.62 452.692 346.044C453.612 345.468 454.72 345.18 456.016 345.18C457.384 345.18 458.56 345.516 459.544 346.188C460.536 346.86 461.2 347.78 461.536 348.948L459.424 349.584C459.152 348.832 458.708 348.248 458.092 347.832C457.484 347.416 456.784 347.208 455.992 347.208C455.104 347.208 454.372 347.416 453.796 347.832C453.22 348.24 452.792 348.808 452.512 349.536C452.232 350.256 452.088 351.084 452.08 352.02C452.096 353.46 452.428 354.624 453.076 355.512C453.732 356.392 454.704 356.832 455.992 356.832C456.84 356.832 457.544 356.64 458.104 356.256C458.664 355.864 459.088 355.3 459.376 354.564L461.536 355.128C461.088 356.336 460.388 357.26 459.436 357.9C458.484 358.54 457.336 358.86 455.992 358.86ZM463.973 358.5L463.985 341.22H466.145V351.78L471.581 345.54H474.353L468.629 352.02L475.025 358.5H472.037L466.145 352.26V358.5H463.973ZM488.26 358.5C487.492 358.652 486.732 358.712 485.98 358.68C485.236 358.656 484.572 358.508 483.988 358.236C483.404 357.956 482.96 357.524 482.656 356.94C482.4 356.428 482.26 355.912 482.236 355.392C482.22 354.864 482.212 354.268 482.212 353.604V341.94H484.348V353.508C484.348 354.036 484.352 354.488 484.36 354.864C484.376 355.24 484.46 355.564 484.612 355.836C484.9 356.348 485.356 356.648 485.98 356.736C486.612 356.824 487.372 356.8 488.26 356.664V358.5ZM479.584 347.304V345.54H488.26V347.304H479.584ZM495.872 358.86C494.584 358.86 493.472 358.568 492.536 357.984C491.608 357.4 490.892 356.592 490.388 355.56C489.884 354.528 489.632 353.344 489.632 352.008C489.632 350.648 489.888 349.456 490.4 348.432C490.912 347.408 491.636 346.612 492.572 346.044C493.508 345.468 494.608 345.18 495.872 345.18C497.168 345.18 498.284 345.472 499.22 346.056C500.156 346.632 500.872 347.436 501.368 348.468C501.872 349.492 502.124 350.672 502.124 352.008C502.124 353.36 501.872 354.552 501.368 355.584C500.864 356.608 500.144 357.412 499.208 357.996C498.272 358.572 497.16 358.86 495.872 358.86ZM495.872 356.832C497.216 356.832 498.216 356.384 498.872 355.488C499.528 354.592 499.856 353.432 499.856 352.008C499.856 350.544 499.524 349.38 498.86 348.516C498.196 347.644 497.2 347.208 495.872 347.208C494.968 347.208 494.224 347.412 493.64 347.82C493.056 348.228 492.62 348.792 492.332 349.512C492.044 350.232 491.9 351.064 491.9 352.008C491.9 353.464 492.236 354.632 492.908 355.512C493.58 356.392 494.568 356.832 495.872 356.832ZM514.491 358.836C513.659 358.836 512.943 358.704 512.343 358.44C511.751 358.176 511.259 357.824 510.867 357.384C510.475 356.944 510.167 356.456 509.943 355.92C509.719 355.384 509.559 354.836 509.463 354.276C509.375 353.716 509.331 353.192 509.331 352.704V345.54H511.491V352.032C511.491 352.64 511.547 353.228 511.659 353.796C511.771 354.364 511.959 354.876 512.223 355.332C512.495 355.788 512.855 356.148 513.303 356.412C513.759 356.676 514.327 356.808 515.007 356.808C515.543 356.808 516.031 356.716 516.471 356.532C516.911 356.348 517.287 356.076 517.599 355.716C517.911 355.348 518.151 354.884 518.319 354.324C518.487 353.764 518.571 353.112 518.571 352.368L519.975 352.8C519.975 354.048 519.747 355.124 519.291 356.028C518.843 356.932 518.207 357.628 517.383 358.116C516.567 358.596 515.603 358.836 514.491 358.836ZM518.811 358.5V355.032H518.571V345.54H520.719V358.5H518.811ZM530.03 358.86C528.814 358.86 527.79 358.56 526.958 357.96C526.126 357.352 525.494 356.532 525.062 355.5C524.638 354.46 524.426 353.296 524.426 352.008C524.426 350.704 524.638 349.536 525.062 348.504C525.494 347.472 526.126 346.66 526.958 346.068C527.798 345.476 528.826 345.18 530.042 345.18C531.242 345.18 532.274 345.48 533.138 346.08C534.01 346.672 534.678 347.484 535.142 348.516C535.606 349.548 535.838 350.712 535.838 352.008C535.838 353.304 535.606 354.468 535.142 355.5C534.678 356.532 534.01 357.352 533.138 357.96C532.274 358.56 531.238 358.86 530.03 358.86ZM524.066 364.26V345.54H525.974V355.08H526.214V364.26H524.066ZM529.766 356.904C530.622 356.904 531.33 356.688 531.89 356.256C532.45 355.824 532.87 355.24 533.15 354.504C533.43 353.76 533.57 352.928 533.57 352.008C533.57 351.096 533.43 350.272 533.15 349.536C532.878 348.8 532.454 348.216 531.878 347.784C531.31 347.352 530.586 347.136 529.706 347.136C528.866 347.136 528.17 347.344 527.618 347.76C527.066 348.168 526.654 348.74 526.382 349.476C526.11 350.204 525.974 351.048 525.974 352.008C525.974 352.952 526.106 353.796 526.37 354.54C526.642 355.276 527.058 355.856 527.618 356.28C528.178 356.696 528.894 356.904 529.766 356.904ZM538.709 358.5V340.86H540.845V358.5H538.709ZM549.966 358.86C548.678 358.86 547.566 358.568 546.63 357.984C545.702 357.4 544.986 356.592 544.482 355.56C543.978 354.528 543.726 353.344 543.726 352.008C543.726 350.648 543.982 349.456 544.494 348.432C545.006 347.408 545.73 346.612 546.666 346.044C547.602 345.468 548.702 345.18 549.966 345.18C551.262 345.18 552.378 345.472 553.314 346.056C554.25 346.632 554.966 347.436 555.462 348.468C555.966 349.492 556.218 350.672 556.218 352.008C556.218 353.36 555.966 354.552 555.462 355.584C554.958 356.608 554.238 357.412 553.302 357.996C552.366 358.572 551.254 358.86 549.966 358.86ZM549.966 356.832C551.31 356.832 552.31 356.384 552.966 355.488C553.622 354.592 553.95 353.432 553.95 352.008C553.95 350.544 553.618 349.38 552.954 348.516C552.29 347.644 551.294 347.208 549.966 347.208C549.062 347.208 548.318 347.412 547.734 347.82C547.15 348.228 546.714 348.792 546.426 349.512C546.138 350.232 545.994 351.064 545.994 352.008C545.994 353.464 546.33 354.632 547.002 355.512C547.674 356.392 548.662 356.832 549.966 356.832ZM562.544 358.86C561.576 358.86 560.764 358.684 560.108 358.332C559.46 357.972 558.968 357.5 558.632 356.916C558.304 356.332 558.14 355.692 558.14 354.996C558.14 354.316 558.268 353.728 558.524 353.232C558.788 352.728 559.156 352.312 559.628 351.984C560.1 351.648 560.664 351.384 561.32 351.192C561.936 351.024 562.624 350.88 563.384 350.76C564.152 350.632 564.928 350.516 565.712 350.412C566.496 350.308 567.228 350.208 567.908 350.112L567.14 350.556C567.164 349.404 566.932 348.552 566.444 348C565.964 347.448 565.132 347.172 563.948 347.172C563.164 347.172 562.476 347.352 561.884 347.712C561.3 348.064 560.888 348.64 560.648 349.44L558.62 348.828C558.932 347.692 559.536 346.8 560.432 346.152C561.328 345.504 562.508 345.18 563.972 345.18C565.148 345.18 566.156 345.392 566.996 345.816C567.844 346.232 568.452 346.864 568.82 347.712C569.004 348.112 569.12 348.548 569.168 349.02C569.216 349.484 569.24 349.972 569.24 350.484V358.5H567.344V355.392L567.788 355.68C567.3 356.728 566.616 357.52 565.736 358.056C564.864 358.592 563.8 358.86 562.544 358.86ZM562.868 357.072C563.636 357.072 564.3 356.936 564.86 356.664C565.428 356.384 565.884 356.02 566.228 355.572C566.572 355.116 566.796 354.62 566.9 354.084C567.02 353.684 567.084 353.24 567.092 352.752C567.108 352.256 567.116 351.876 567.116 351.612L567.86 351.936C567.164 352.032 566.48 352.124 565.808 352.212C565.136 352.3 564.5 352.396 563.9 352.5C563.3 352.596 562.76 352.712 562.28 352.848C561.928 352.96 561.596 353.104 561.284 353.28C560.98 353.456 560.732 353.684 560.54 353.964C560.356 354.236 560.264 354.576 560.264 354.984C560.264 355.336 560.352 355.672 560.528 355.992C560.712 356.312 560.992 356.572 561.368 356.772C561.752 356.972 562.252 357.072 562.868 357.072ZM577.448 358.86C576.24 358.86 575.204 358.56 574.34 357.96C573.476 357.352 572.808 356.532 572.336 355.5C571.872 354.468 571.64 353.304 571.64 352.008C571.64 350.712 571.872 349.548 572.336 348.516C572.808 347.484 573.476 346.672 574.34 346.08C575.204 345.48 576.236 345.18 577.436 345.18C578.66 345.18 579.688 345.476 580.52 346.068C581.352 346.66 581.98 347.472 582.404 348.504C582.836 349.536 583.052 350.704 583.052 352.008C583.052 353.296 582.836 354.46 582.404 355.5C581.98 356.532 581.352 357.352 580.52 357.96C579.688 358.56 578.664 358.86 577.448 358.86ZM577.712 356.904C578.584 356.904 579.3 356.696 579.86 356.28C580.42 355.856 580.832 355.276 581.096 354.54C581.368 353.796 581.504 352.952 581.504 352.008C581.504 351.048 581.368 350.204 581.096 349.476C580.832 348.74 580.424 348.168 579.872 347.76C579.32 347.344 578.62 347.136 577.772 347.136C576.892 347.136 576.164 347.352 575.588 347.784C575.02 348.216 574.596 348.8 574.316 349.536C574.044 350.272 573.908 351.096 573.908 352.008C573.908 352.928 574.048 353.76 574.328 354.504C574.608 355.24 575.028 355.824 575.588 356.256C576.156 356.688 576.864 356.904 577.712 356.904ZM581.504 358.5V348.96H581.264V341.22H583.412V358.5H581.504ZM595.082 358.5L590.378 345.54H592.538L596.174 355.776L599.798 345.54H601.97L597.266 358.5H595.082ZM604.381 343.248V341.04H606.517V343.248H604.381ZM604.381 358.5V345.54H606.517V358.5H604.381ZM615.206 358.86C613.998 358.86 612.962 358.56 612.098 357.96C611.234 357.352 610.566 356.532 610.094 355.5C609.63 354.468 609.398 353.304 609.398 352.008C609.398 350.712 609.63 349.548 610.094 348.516C610.566 347.484 611.234 346.672 612.098 346.08C612.962 345.48 613.994 345.18 615.194 345.18C616.418 345.18 617.446 345.476 618.278 346.068C619.11 346.66 619.738 347.472 620.162 348.504C620.594 349.536 620.81 350.704 620.81 352.008C620.81 353.296 620.594 354.46 620.162 355.5C619.738 356.532 619.11 357.352 618.278 357.96C617.446 358.56 616.422 358.86 615.206 358.86ZM615.47 356.904C616.342 356.904 617.058 356.696 617.618 356.28C618.178 355.856 618.59 355.276 618.854 354.54C619.126 353.796 619.262 352.952 619.262 352.008C619.262 351.048 619.126 350.204 618.854 349.476C618.59 348.74 618.182 348.168 617.63 347.76C617.078 347.344 616.378 347.136 615.53 347.136C614.65 347.136 613.922 347.352 613.346 347.784C612.778 348.216 612.354 348.8 612.074 349.536C611.802 350.272 611.666 351.096 611.666 352.008C611.666 352.928 611.806 353.76 612.086 354.504C612.366 355.24 612.786 355.824 613.346 356.256C613.914 356.688 614.622 356.904 615.47 356.904ZM619.262 358.5V348.96H619.022V341.22H621.17V358.5H619.262ZM630.148 358.86C628.876 358.86 627.764 358.58 626.812 358.02C625.868 357.452 625.132 356.664 624.604 355.656C624.076 354.64 623.812 353.456 623.812 352.104C623.812 350.688 624.072 349.464 624.592 348.432C625.112 347.392 625.836 346.592 626.764 346.032C627.7 345.464 628.796 345.18 630.052 345.18C631.356 345.18 632.464 345.48 633.376 346.08C634.296 346.68 634.984 347.536 635.44 348.648C635.904 349.76 636.104 351.084 636.04 352.62H633.88V351.852C633.856 350.26 633.532 349.072 632.908 348.288C632.284 347.496 631.356 347.1 630.124 347.1C628.804 347.1 627.8 347.524 627.112 348.372C626.424 349.22 626.08 350.436 626.08 352.02C626.08 353.548 626.424 354.732 627.112 355.572C627.8 356.412 628.78 356.832 630.052 356.832C630.908 356.832 631.652 356.636 632.284 356.244C632.916 355.852 633.412 355.288 633.772 354.552L635.824 355.26C635.32 356.404 634.56 357.292 633.544 357.924C632.536 358.548 631.404 358.86 630.148 358.86ZM625.36 352.62V350.904H634.936V352.62H625.36ZM644.231 358.86C642.943 358.86 641.831 358.568 640.895 357.984C639.967 357.4 639.251 356.592 638.747 355.56C638.243 354.528 637.991 353.344 637.991 352.008C637.991 350.648 638.247 349.456 638.759 348.432C639.271 347.408 639.995 346.612 640.931 346.044C641.867 345.468 642.967 345.18 644.231 345.18C645.527 345.18 646.643 345.472 647.579 346.056C648.515 346.632 649.231 347.436 649.727 348.468C650.231 349.492 650.483 350.672 650.483 352.008C650.483 353.36 650.231 354.552 649.727 355.584C649.223 356.608 648.503 357.412 647.567 357.996C646.631 358.572 645.519 358.86 644.231 358.86ZM644.231 356.832C645.575 356.832 646.575 356.384 647.231 355.488C647.887 354.592 648.215 353.432 648.215 352.008C648.215 350.544 647.883 349.38 647.219 348.516C646.555 347.644 645.559 347.208 644.231 347.208C643.327 347.208 642.583 347.412 641.999 347.82C641.415 348.228 640.979 348.792 640.691 349.512C640.403 350.232 640.259 351.064 640.259 352.008C640.259 353.464 640.595 354.632 641.267 355.512C641.939 356.392 642.927 356.832 644.231 356.832Z" fill="#7337FF"/>
<path d="M653.041 358.5V356.148H655.393V358.5H653.041Z" fill="black" fill-opacity="0.53"/>
<defs>
<linearGradient id="paint0_linear_236_523" x1="579.426" y1="211.499" x2="495.613" y2="295.312" gradientUnits="userSpaceOnUse">
<stop stop-color="#0E18DC"/>
<stop offset="0.125" stop-color="#2618DD"/>
<stop offset="0.548" stop-color="#7317DF"/>
<stop offset="0.85" stop-color="#A316E0"/>
<stop offset="1" stop-color="#B516E1"/>
</linearGradient>
</defs>
</svg>
