<svg width="1076" height="492" viewBox="0 0 1076 492" fill="none" xmlns="http://www.w3.org/2000/svg">
<rect x="0.5" y="0.5" width="1075" height="491" rx="7.5" stroke="black" stroke-opacity="0.2"/>
<path d="M579.83 181.89C574.541 178.214 568.253 176.246 561.812 176.25C560.76 176.25 559.75 176.668 559.006 177.412C558.262 178.157 557.844 179.166 557.844 180.219C557.844 181.271 558.262 182.281 559.006 183.025C559.75 183.769 560.76 184.188 561.812 184.188C566.96 184.19 571.966 185.87 576.072 188.974C579.155 191.296 581.632 194.328 583.295 197.811C584.958 201.294 585.757 205.127 585.625 208.984C585.698 214.98 583.58 220.797 579.667 225.341C575.754 229.885 570.317 232.844 564.376 233.662C560.712 234.055 557.007 233.59 553.553 232.305C551.453 231.513 549.169 231.343 546.975 231.814C544.781 232.286 542.768 233.379 541.179 234.964C537.721 238.434 533.459 240.997 528.773 242.425C524.087 243.854 519.12 244.103 514.315 243.152C509.509 242.201 505.012 240.078 501.223 236.972C497.435 233.866 494.471 229.873 492.596 225.347C490.721 220.821 489.991 215.902 490.473 211.026C490.955 206.151 492.632 201.47 495.357 197.398C498.082 193.327 501.77 189.991 506.093 187.686C510.416 185.382 515.241 184.18 520.14 184.188C520.949 184.381 521.791 184.393 522.605 184.224C523.42 184.054 524.187 183.707 524.851 183.207C525.244 182.836 525.557 182.388 525.771 181.891C525.984 181.394 526.094 180.859 526.094 180.318C526.086 179.763 525.965 179.216 525.738 178.71C525.511 178.204 525.183 177.75 524.774 177.375C524.365 177.001 523.884 176.714 523.36 176.532C522.837 176.35 522.281 176.277 521.728 176.318C521.196 176.282 520.664 176.25 520.14 176.25C513.935 176.242 507.824 177.766 502.349 180.686C496.874 183.606 492.205 187.833 488.755 192.99C485.305 198.148 483.181 204.077 482.572 210.252C481.963 216.427 482.887 222.657 485.263 228.389C487.639 234.121 491.393 239.179 496.192 243.112C500.99 247.046 506.686 249.734 512.773 250.939C518.86 252.144 525.15 251.827 531.086 250.018C537.021 248.209 542.418 244.963 546.799 240.568C547.314 240.069 547.961 239.726 548.663 239.58C549.365 239.433 550.095 239.488 550.767 239.738C555.372 241.474 560.322 242.096 565.214 241.552C573.095 240.508 580.324 236.623 585.544 230.626C590.763 224.63 593.615 216.934 593.562 208.984C593.695 203.684 592.509 198.434 590.113 193.705C587.716 188.977 584.183 184.917 579.83 181.89ZM551.069 175.087L545.937 169.956V196.094C545.937 197.146 545.519 198.156 544.775 198.9C544.031 199.644 543.021 200.063 541.969 200.063C540.916 200.063 539.906 199.644 539.162 198.9C538.418 198.156 538 197.146 538 196.094V169.956L532.868 175.087C532.12 175.81 531.117 176.21 530.077 176.201C529.036 176.192 528.041 175.775 527.305 175.039C526.569 174.303 526.152 173.308 526.142 172.267C526.133 171.226 526.533 170.224 527.256 169.475L539.163 157.569C539.911 156.829 540.92 156.415 541.973 156.415C543.025 156.415 544.034 156.829 544.782 157.569L556.689 169.475C557.412 170.224 557.812 171.226 557.803 172.267C557.794 173.308 557.376 174.303 556.64 175.039C555.904 175.775 554.909 176.192 553.868 176.201C552.828 176.21 551.825 175.81 551.077 175.087H551.069Z" fill="url(#paint0_linear_1422_3418)"/>
<path d="M288.491 307.86C286.771 307.86 285.311 307.48 284.111 306.72C282.911 305.96 281.995 304.904 281.363 303.552C280.739 302.2 280.427 300.636 280.427 298.86C280.427 297.084 280.739 295.52 281.363 294.168C281.995 292.816 282.911 291.76 284.111 291C285.311 290.24 286.771 289.86 288.491 289.86C290.491 289.86 292.135 290.368 293.423 291.384C294.719 292.4 295.611 293.768 296.099 295.488L293.927 296.064C293.575 294.776 292.947 293.76 292.043 293.016C291.139 292.272 289.955 291.9 288.491 291.9C287.203 291.9 286.131 292.192 285.275 292.776C284.419 293.36 283.775 294.176 283.343 295.224C282.911 296.264 282.691 297.476 282.683 298.86C282.675 300.236 282.887 301.448 283.319 302.496C283.751 303.536 284.399 304.352 285.263 304.944C286.127 305.528 287.203 305.82 288.491 305.82C289.955 305.82 291.139 305.448 292.043 304.704C292.947 303.952 293.575 302.936 293.927 301.656L296.099 302.232C295.611 303.944 294.719 305.312 293.423 306.336C292.135 307.352 290.491 307.86 288.491 307.86ZM298.971 307.5V289.86H301.107V307.5H298.971ZM304.947 292.248V290.04H307.083V292.248H304.947ZM304.947 307.5V294.54H307.083V307.5H304.947ZM316.144 307.86C314.832 307.86 313.716 307.568 312.796 306.984C311.884 306.392 311.188 305.58 310.708 304.548C310.228 303.516 309.98 302.34 309.964 301.02C309.98 299.668 310.232 298.48 310.72 297.456C311.216 296.424 311.924 295.62 312.844 295.044C313.764 294.468 314.872 294.18 316.168 294.18C317.536 294.18 318.712 294.516 319.696 295.188C320.688 295.86 321.352 296.78 321.688 297.948L319.576 298.584C319.304 297.832 318.86 297.248 318.244 296.832C317.636 296.416 316.936 296.208 316.144 296.208C315.256 296.208 314.524 296.416 313.948 296.832C313.372 297.24 312.944 297.808 312.664 298.536C312.384 299.256 312.24 300.084 312.232 301.02C312.248 302.46 312.58 303.624 313.228 304.512C313.884 305.392 314.856 305.832 316.144 305.832C316.992 305.832 317.696 305.64 318.256 305.256C318.816 304.864 319.24 304.3 319.528 303.564L321.688 304.128C321.24 305.336 320.54 306.26 319.588 306.9C318.636 307.54 317.488 307.86 316.144 307.86ZM324.125 307.5L324.137 290.22H326.297V300.78L331.733 294.54H334.505L328.781 301.02L335.177 307.5H332.189L326.297 301.26V307.5H324.125ZM348.412 307.5C347.644 307.652 346.884 307.712 346.132 307.68C345.388 307.656 344.724 307.508 344.14 307.236C343.556 306.956 343.112 306.524 342.808 305.94C342.552 305.428 342.412 304.912 342.388 304.392C342.372 303.864 342.364 303.268 342.364 302.604V290.94H344.5V302.508C344.5 303.036 344.504 303.488 344.512 303.864C344.528 304.24 344.612 304.564 344.764 304.836C345.052 305.348 345.508 305.648 346.132 305.736C346.764 305.824 347.524 305.8 348.412 305.664V307.5ZM339.736 296.304V294.54H348.412V296.304H339.736ZM356.024 307.86C354.736 307.86 353.624 307.568 352.688 306.984C351.76 306.4 351.044 305.592 350.54 304.56C350.036 303.528 349.784 302.344 349.784 301.008C349.784 299.648 350.04 298.456 350.552 297.432C351.064 296.408 351.788 295.612 352.724 295.044C353.66 294.468 354.76 294.18 356.024 294.18C357.32 294.18 358.436 294.472 359.372 295.056C360.308 295.632 361.024 296.436 361.52 297.468C362.024 298.492 362.276 299.672 362.276 301.008C362.276 302.36 362.024 303.552 361.52 304.584C361.016 305.608 360.296 306.412 359.36 306.996C358.424 307.572 357.312 307.86 356.024 307.86ZM356.024 305.832C357.368 305.832 358.368 305.384 359.024 304.488C359.68 303.592 360.008 302.432 360.008 301.008C360.008 299.544 359.676 298.38 359.012 297.516C358.348 296.644 357.352 296.208 356.024 296.208C355.12 296.208 354.376 296.412 353.792 296.82C353.208 297.228 352.772 297.792 352.484 298.512C352.196 299.232 352.052 300.064 352.052 301.008C352.052 302.464 352.388 303.632 353.06 304.512C353.732 305.392 354.72 305.832 356.024 305.832ZM374.643 307.836C373.811 307.836 373.095 307.704 372.495 307.44C371.903 307.176 371.411 306.824 371.019 306.384C370.627 305.944 370.319 305.456 370.095 304.92C369.871 304.384 369.711 303.836 369.615 303.276C369.527 302.716 369.483 302.192 369.483 301.704V294.54H371.643V301.032C371.643 301.64 371.699 302.228 371.811 302.796C371.923 303.364 372.111 303.876 372.375 304.332C372.647 304.788 373.007 305.148 373.455 305.412C373.911 305.676 374.479 305.808 375.159 305.808C375.695 305.808 376.183 305.716 376.623 305.532C377.063 305.348 377.439 305.076 377.751 304.716C378.063 304.348 378.303 303.884 378.471 303.324C378.639 302.764 378.723 302.112 378.723 301.368L380.127 301.8C380.127 303.048 379.899 304.124 379.443 305.028C378.995 305.932 378.359 306.628 377.535 307.116C376.719 307.596 375.755 307.836 374.643 307.836ZM378.963 307.5V304.032H378.723V294.54H380.871V307.5H378.963ZM390.183 307.86C388.967 307.86 387.943 307.56 387.111 306.96C386.279 306.352 385.647 305.532 385.215 304.5C384.791 303.46 384.579 302.296 384.579 301.008C384.579 299.704 384.791 298.536 385.215 297.504C385.647 296.472 386.279 295.66 387.111 295.068C387.951 294.476 388.979 294.18 390.195 294.18C391.395 294.18 392.427 294.48 393.291 295.08C394.163 295.672 394.831 296.484 395.295 297.516C395.759 298.548 395.991 299.712 395.991 301.008C395.991 302.304 395.759 303.468 395.295 304.5C394.831 305.532 394.163 306.352 393.291 306.96C392.427 307.56 391.391 307.86 390.183 307.86ZM384.219 313.26V294.54H386.127V304.08H386.367V313.26H384.219ZM389.919 305.904C390.775 305.904 391.483 305.688 392.043 305.256C392.603 304.824 393.023 304.24 393.303 303.504C393.583 302.76 393.723 301.928 393.723 301.008C393.723 300.096 393.583 299.272 393.303 298.536C393.031 297.8 392.607 297.216 392.031 296.784C391.463 296.352 390.739 296.136 389.859 296.136C389.019 296.136 388.323 296.344 387.771 296.76C387.219 297.168 386.807 297.74 386.535 298.476C386.263 299.204 386.127 300.048 386.127 301.008C386.127 301.952 386.259 302.796 386.523 303.54C386.795 304.276 387.211 304.856 387.771 305.28C388.331 305.696 389.047 305.904 389.919 305.904ZM398.861 307.5V289.86H400.997V307.5H398.861ZM410.118 307.86C408.83 307.86 407.718 307.568 406.782 306.984C405.854 306.4 405.138 305.592 404.634 304.56C404.13 303.528 403.878 302.344 403.878 301.008C403.878 299.648 404.134 298.456 404.646 297.432C405.158 296.408 405.882 295.612 406.818 295.044C407.754 294.468 408.854 294.18 410.118 294.18C411.414 294.18 412.53 294.472 413.466 295.056C414.402 295.632 415.118 296.436 415.614 297.468C416.118 298.492 416.37 299.672 416.37 301.008C416.37 302.36 416.118 303.552 415.614 304.584C415.11 305.608 414.39 306.412 413.454 306.996C412.518 307.572 411.406 307.86 410.118 307.86ZM410.118 305.832C411.462 305.832 412.462 305.384 413.118 304.488C413.774 303.592 414.102 302.432 414.102 301.008C414.102 299.544 413.77 298.38 413.106 297.516C412.442 296.644 411.446 296.208 410.118 296.208C409.214 296.208 408.47 296.412 407.886 296.82C407.302 297.228 406.866 297.792 406.578 298.512C406.29 299.232 406.146 300.064 406.146 301.008C406.146 302.464 406.482 303.632 407.154 304.512C407.826 305.392 408.814 305.832 410.118 305.832ZM422.696 307.86C421.728 307.86 420.916 307.684 420.26 307.332C419.612 306.972 419.12 306.5 418.784 305.916C418.456 305.332 418.292 304.692 418.292 303.996C418.292 303.316 418.42 302.728 418.676 302.232C418.94 301.728 419.308 301.312 419.78 300.984C420.252 300.648 420.816 300.384 421.472 300.192C422.088 300.024 422.776 299.88 423.536 299.76C424.304 299.632 425.08 299.516 425.864 299.412C426.648 299.308 427.38 299.208 428.06 299.112L427.292 299.556C427.316 298.404 427.084 297.552 426.596 297C426.116 296.448 425.284 296.172 424.1 296.172C423.316 296.172 422.628 296.352 422.036 296.712C421.452 297.064 421.04 297.64 420.8 298.44L418.772 297.828C419.084 296.692 419.688 295.8 420.584 295.152C421.48 294.504 422.66 294.18 424.124 294.18C425.3 294.18 426.308 294.392 427.148 294.816C427.996 295.232 428.604 295.864 428.972 296.712C429.156 297.112 429.272 297.548 429.32 298.02C429.368 298.484 429.392 298.972 429.392 299.484V307.5H427.496V304.392L427.94 304.68C427.452 305.728 426.768 306.52 425.888 307.056C425.016 307.592 423.952 307.86 422.696 307.86ZM423.02 306.072C423.788 306.072 424.452 305.936 425.012 305.664C425.58 305.384 426.036 305.02 426.38 304.572C426.724 304.116 426.948 303.62 427.052 303.084C427.172 302.684 427.236 302.24 427.244 301.752C427.26 301.256 427.268 300.876 427.268 300.612L428.012 300.936C427.316 301.032 426.632 301.124 425.96 301.212C425.288 301.3 424.652 301.396 424.052 301.5C423.452 301.596 422.912 301.712 422.432 301.848C422.08 301.96 421.748 302.104 421.436 302.28C421.132 302.456 420.884 302.684 420.692 302.964C420.508 303.236 420.416 303.576 420.416 303.984C420.416 304.336 420.504 304.672 420.68 304.992C420.864 305.312 421.144 305.572 421.52 305.772C421.904 305.972 422.404 306.072 423.02 306.072ZM437.6 307.86C436.392 307.86 435.356 307.56 434.492 306.96C433.628 306.352 432.96 305.532 432.488 304.5C432.024 303.468 431.792 302.304 431.792 301.008C431.792 299.712 432.024 298.548 432.488 297.516C432.96 296.484 433.628 295.672 434.492 295.08C435.356 294.48 436.388 294.18 437.588 294.18C438.812 294.18 439.84 294.476 440.672 295.068C441.504 295.66 442.132 296.472 442.556 297.504C442.988 298.536 443.204 299.704 443.204 301.008C443.204 302.296 442.988 303.46 442.556 304.5C442.132 305.532 441.504 306.352 440.672 306.96C439.84 307.56 438.816 307.86 437.6 307.86ZM437.864 305.904C438.736 305.904 439.452 305.696 440.012 305.28C440.572 304.856 440.984 304.276 441.248 303.54C441.52 302.796 441.656 301.952 441.656 301.008C441.656 300.048 441.52 299.204 441.248 298.476C440.984 297.74 440.576 297.168 440.024 296.76C439.472 296.344 438.772 296.136 437.924 296.136C437.044 296.136 436.316 296.352 435.74 296.784C435.172 297.216 434.748 297.8 434.468 298.536C434.196 299.272 434.06 300.096 434.06 301.008C434.06 301.928 434.2 302.76 434.48 303.504C434.76 304.24 435.18 304.824 435.74 305.256C436.308 305.688 437.016 305.904 437.864 305.904ZM441.656 307.5V297.96H441.416V290.22H443.564V307.5H441.656Z" fill="#7337FF"/>
<path d="M457.251 307.86C455.963 307.86 454.851 307.568 453.915 306.984C452.987 306.4 452.271 305.592 451.767 304.56C451.263 303.528 451.011 302.344 451.011 301.008C451.011 299.648 451.267 298.456 451.779 297.432C452.291 296.408 453.015 295.612 453.951 295.044C454.887 294.468 455.987 294.18 457.251 294.18C458.547 294.18 459.663 294.472 460.599 295.056C461.535 295.632 462.251 296.436 462.747 297.468C463.251 298.492 463.503 299.672 463.503 301.008C463.503 302.36 463.251 303.552 462.747 304.584C462.243 305.608 461.523 306.412 460.587 306.996C459.651 307.572 458.539 307.86 457.251 307.86ZM457.251 305.832C458.595 305.832 459.595 305.384 460.251 304.488C460.907 303.592 461.235 302.432 461.235 301.008C461.235 299.544 460.903 298.38 460.239 297.516C459.575 296.644 458.579 296.208 457.251 296.208C456.347 296.208 455.603 296.412 455.019 296.82C454.435 297.228 453.999 297.792 453.711 298.512C453.423 299.232 453.279 300.064 453.279 301.008C453.279 302.464 453.615 303.632 454.287 304.512C454.959 305.392 455.947 305.832 457.251 305.832ZM466.145 307.5V294.54H468.053V297.672L467.741 297.264C467.893 296.864 468.089 296.496 468.329 296.16C468.577 295.824 468.853 295.548 469.157 295.332C469.493 295.06 469.873 294.852 470.297 294.708C470.721 294.564 471.153 294.48 471.593 294.456C472.033 294.424 472.445 294.452 472.829 294.54V296.544C472.381 296.424 471.889 296.392 471.353 296.448C470.817 296.504 470.321 296.7 469.865 297.036C469.449 297.332 469.125 297.692 468.893 298.116C468.669 298.54 468.513 299 468.425 299.496C468.337 299.984 468.293 300.484 468.293 300.996V307.5H466.145ZM484.991 307.86C483.783 307.86 482.747 307.56 481.883 306.96C481.019 306.352 480.351 305.532 479.879 304.5C479.415 303.468 479.183 302.304 479.183 301.008C479.183 299.712 479.415 298.548 479.879 297.516C480.351 296.484 481.019 295.672 481.883 295.08C482.747 294.48 483.779 294.18 484.979 294.18C486.203 294.18 487.231 294.476 488.063 295.068C488.895 295.66 489.523 296.472 489.947 297.504C490.379 298.536 490.595 299.704 490.595 301.008C490.595 302.296 490.379 303.46 489.947 304.5C489.523 305.532 488.895 306.352 488.063 306.96C487.231 307.56 486.207 307.86 484.991 307.86ZM485.255 305.904C486.127 305.904 486.843 305.696 487.403 305.28C487.963 304.856 488.375 304.276 488.639 303.54C488.911 302.796 489.047 301.952 489.047 301.008C489.047 300.048 488.911 299.204 488.639 298.476C488.375 297.74 487.967 297.168 487.415 296.76C486.863 296.344 486.163 296.136 485.315 296.136C484.435 296.136 483.707 296.352 483.131 296.784C482.563 297.216 482.139 297.8 481.859 298.536C481.587 299.272 481.451 300.096 481.451 301.008C481.451 301.928 481.591 302.76 481.871 303.504C482.151 304.24 482.571 304.824 483.131 305.256C483.699 305.688 484.407 305.904 485.255 305.904ZM489.047 307.5V297.96H488.807V290.22H490.955V307.5H489.047ZM494.317 307.5V294.54H496.225V297.672L495.913 297.264C496.065 296.864 496.261 296.496 496.501 296.16C496.749 295.824 497.025 295.548 497.329 295.332C497.665 295.06 498.045 294.852 498.469 294.708C498.893 294.564 499.325 294.48 499.765 294.456C500.205 294.424 500.617 294.452 501.001 294.54V296.544C500.553 296.424 500.061 296.392 499.525 296.448C498.989 296.504 498.493 296.7 498.037 297.036C497.621 297.332 497.297 297.692 497.065 298.116C496.841 298.54 496.685 299 496.597 299.496C496.509 299.984 496.465 300.484 496.465 300.996V307.5H494.317ZM506.532 307.86C505.564 307.86 504.752 307.684 504.096 307.332C503.448 306.972 502.956 306.5 502.62 305.916C502.292 305.332 502.128 304.692 502.128 303.996C502.128 303.316 502.256 302.728 502.512 302.232C502.776 301.728 503.144 301.312 503.616 300.984C504.088 300.648 504.652 300.384 505.308 300.192C505.924 300.024 506.612 299.88 507.372 299.76C508.14 299.632 508.916 299.516 509.7 299.412C510.484 299.308 511.216 299.208 511.896 299.112L511.128 299.556C511.152 298.404 510.92 297.552 510.432 297C509.952 296.448 509.12 296.172 507.936 296.172C507.152 296.172 506.464 296.352 505.872 296.712C505.288 297.064 504.876 297.64 504.636 298.44L502.608 297.828C502.92 296.692 503.524 295.8 504.42 295.152C505.316 294.504 506.496 294.18 507.96 294.18C509.136 294.18 510.144 294.392 510.984 294.816C511.832 295.232 512.44 295.864 512.808 296.712C512.992 297.112 513.108 297.548 513.156 298.02C513.204 298.484 513.228 298.972 513.228 299.484V307.5H511.332V304.392L511.776 304.68C511.288 305.728 510.604 306.52 509.724 307.056C508.852 307.592 507.788 307.86 506.532 307.86ZM506.856 306.072C507.624 306.072 508.288 305.936 508.848 305.664C509.416 305.384 509.872 305.02 510.216 304.572C510.56 304.116 510.784 303.62 510.888 303.084C511.008 302.684 511.072 302.24 511.08 301.752C511.096 301.256 511.104 300.876 511.104 300.612L511.848 300.936C511.152 301.032 510.468 301.124 509.796 301.212C509.124 301.3 508.488 301.396 507.888 301.5C507.288 301.596 506.748 301.712 506.268 301.848C505.916 301.96 505.584 302.104 505.272 302.28C504.968 302.456 504.72 302.684 504.528 302.964C504.344 303.236 504.252 303.576 504.252 303.984C504.252 304.336 504.34 304.672 504.516 304.992C504.7 305.312 504.98 305.572 505.356 305.772C505.74 305.972 506.24 306.072 506.856 306.072ZM521.592 313.62C520.912 313.62 520.248 313.516 519.6 313.308C518.952 313.1 518.356 312.784 517.812 312.36C517.276 311.944 516.828 311.416 516.468 310.776L518.424 309.744C518.744 310.376 519.196 310.836 519.78 311.124C520.372 311.412 520.98 311.556 521.604 311.556C522.428 311.556 523.112 311.404 523.656 311.1C524.2 310.804 524.6 310.36 524.856 309.768C525.12 309.176 525.248 308.44 525.24 307.56V304.02H525.492V294.54H527.388V307.584C527.388 307.936 527.376 308.276 527.352 308.604C527.336 308.932 527.296 309.256 527.232 309.576C527.064 310.496 526.732 311.252 526.236 311.844C525.74 312.444 525.1 312.888 524.316 313.176C523.532 313.472 522.624 313.62 521.592 313.62ZM521.436 307.86C520.228 307.86 519.192 307.56 518.328 306.96C517.464 306.352 516.796 305.532 516.324 304.5C515.86 303.468 515.628 302.304 515.628 301.008C515.628 299.712 515.86 298.548 516.324 297.516C516.796 296.484 517.464 295.672 518.328 295.08C519.192 294.48 520.224 294.18 521.424 294.18C522.648 294.18 523.676 294.476 524.508 295.068C525.34 295.66 525.968 296.472 526.392 297.504C526.824 298.536 527.04 299.704 527.04 301.008C527.04 302.296 526.824 303.46 526.392 304.5C525.968 305.532 525.34 306.352 524.508 306.96C523.676 307.56 522.652 307.86 521.436 307.86ZM521.7 305.904C522.572 305.904 523.288 305.696 523.848 305.28C524.408 304.856 524.82 304.276 525.084 303.54C525.356 302.796 525.492 301.952 525.492 301.008C525.492 300.048 525.356 299.204 525.084 298.476C524.82 297.74 524.412 297.168 523.86 296.76C523.308 296.344 522.608 296.136 521.76 296.136C520.88 296.136 520.152 296.352 519.576 296.784C519.008 297.216 518.584 297.8 518.304 298.536C518.032 299.272 517.896 300.096 517.896 301.008C517.896 301.928 518.036 302.76 518.316 303.504C518.596 304.24 519.016 304.824 519.576 305.256C520.144 305.688 520.852 305.904 521.7 305.904ZM539.227 307.86C538.259 307.86 537.447 307.684 536.791 307.332C536.143 306.972 535.651 306.5 535.315 305.916C534.987 305.332 534.823 304.692 534.823 303.996C534.823 303.316 534.951 302.728 535.207 302.232C535.471 301.728 535.839 301.312 536.311 300.984C536.783 300.648 537.347 300.384 538.003 300.192C538.619 300.024 539.307 299.88 540.067 299.76C540.835 299.632 541.611 299.516 542.395 299.412C543.179 299.308 543.911 299.208 544.591 299.112L543.823 299.556C543.847 298.404 543.615 297.552 543.127 297C542.647 296.448 541.815 296.172 540.631 296.172C539.847 296.172 539.159 296.352 538.567 296.712C537.983 297.064 537.571 297.64 537.331 298.44L535.303 297.828C535.615 296.692 536.219 295.8 537.115 295.152C538.011 294.504 539.191 294.18 540.655 294.18C541.831 294.18 542.839 294.392 543.679 294.816C544.527 295.232 545.135 295.864 545.503 296.712C545.687 297.112 545.803 297.548 545.851 298.02C545.899 298.484 545.923 298.972 545.923 299.484V307.5H544.027V304.392L544.471 304.68C543.983 305.728 543.299 306.52 542.419 307.056C541.547 307.592 540.483 307.86 539.227 307.86ZM539.551 306.072C540.319 306.072 540.983 305.936 541.543 305.664C542.111 305.384 542.567 305.02 542.911 304.572C543.255 304.116 543.479 303.62 543.583 303.084C543.703 302.684 543.767 302.24 543.775 301.752C543.791 301.256 543.799 300.876 543.799 300.612L544.543 300.936C543.847 301.032 543.163 301.124 542.491 301.212C541.819 301.3 541.183 301.396 540.583 301.5C539.983 301.596 539.443 301.712 538.963 301.848C538.611 301.96 538.279 302.104 537.967 302.28C537.663 302.456 537.415 302.684 537.223 302.964C537.039 303.236 536.947 303.576 536.947 303.984C536.947 304.336 537.035 304.672 537.211 304.992C537.395 305.312 537.675 305.572 538.051 305.772C538.435 305.972 538.935 306.072 539.551 306.072ZM558.271 307.5V301.008C558.271 300.392 558.215 299.8 558.103 299.232C557.999 298.664 557.811 298.156 557.539 297.708C557.275 297.252 556.915 296.892 556.459 296.628C556.011 296.364 555.443 296.232 554.755 296.232C554.219 296.232 553.731 296.324 553.291 296.508C552.859 296.684 552.487 296.956 552.175 297.324C551.863 297.692 551.619 298.156 551.443 298.716C551.275 299.268 551.191 299.92 551.191 300.672L549.787 300.24C549.787 298.984 550.011 297.908 550.459 297.012C550.915 296.108 551.551 295.416 552.367 294.936C553.191 294.448 554.159 294.204 555.271 294.204C556.111 294.204 556.827 294.336 557.419 294.6C558.011 294.864 558.503 295.216 558.895 295.656C559.287 296.088 559.595 296.576 559.819 297.12C560.043 297.656 560.199 298.204 560.287 298.764C560.383 299.316 560.431 299.84 560.431 300.336V307.5H558.271ZM549.031 307.5V294.54H550.951V298.008H551.191V307.5H549.031ZM568.522 307.86C567.314 307.86 566.278 307.56 565.414 306.96C564.55 306.352 563.882 305.532 563.41 304.5C562.946 303.468 562.714 302.304 562.714 301.008C562.714 299.712 562.946 298.548 563.41 297.516C563.882 296.484 564.55 295.672 565.414 295.08C566.278 294.48 567.31 294.18 568.51 294.18C569.734 294.18 570.762 294.476 571.594 295.068C572.426 295.66 573.054 296.472 573.478 297.504C573.91 298.536 574.126 299.704 574.126 301.008C574.126 302.296 573.91 303.46 573.478 304.5C573.054 305.532 572.426 306.352 571.594 306.96C570.762 307.56 569.738 307.86 568.522 307.86ZM568.786 305.904C569.658 305.904 570.374 305.696 570.934 305.28C571.494 304.856 571.906 304.276 572.17 303.54C572.442 302.796 572.578 301.952 572.578 301.008C572.578 300.048 572.442 299.204 572.17 298.476C571.906 297.74 571.498 297.168 570.946 296.76C570.394 296.344 569.694 296.136 568.846 296.136C567.966 296.136 567.238 296.352 566.662 296.784C566.094 297.216 565.67 297.8 565.39 298.536C565.118 299.272 564.982 300.096 564.982 301.008C564.982 301.928 565.122 302.76 565.402 303.504C565.682 304.24 566.102 304.824 566.662 305.256C567.23 305.688 567.938 305.904 568.786 305.904ZM572.578 307.5V297.96H572.338V290.22H574.486V307.5H572.578ZM587.741 307.86C586.533 307.86 585.497 307.56 584.633 306.96C583.769 306.352 583.101 305.532 582.629 304.5C582.165 303.468 581.933 302.304 581.933 301.008C581.933 299.712 582.165 298.548 582.629 297.516C583.101 296.484 583.769 295.672 584.633 295.08C585.497 294.48 586.529 294.18 587.729 294.18C588.953 294.18 589.981 294.476 590.813 295.068C591.645 295.66 592.273 296.472 592.697 297.504C593.129 298.536 593.345 299.704 593.345 301.008C593.345 302.296 593.129 303.46 592.697 304.5C592.273 305.532 591.645 306.352 590.813 306.96C589.981 307.56 588.957 307.86 587.741 307.86ZM588.005 305.904C588.877 305.904 589.593 305.696 590.153 305.28C590.713 304.856 591.125 304.276 591.389 303.54C591.661 302.796 591.797 301.952 591.797 301.008C591.797 300.048 591.661 299.204 591.389 298.476C591.125 297.74 590.717 297.168 590.165 296.76C589.613 296.344 588.913 296.136 588.065 296.136C587.185 296.136 586.457 296.352 585.881 296.784C585.313 297.216 584.889 297.8 584.609 298.536C584.337 299.272 584.201 300.096 584.201 301.008C584.201 301.928 584.341 302.76 584.621 303.504C584.901 304.24 585.321 304.824 585.881 305.256C586.449 305.688 587.157 305.904 588.005 305.904ZM591.797 307.5V297.96H591.557V290.22H593.705V307.5H591.797ZM597.067 307.5V294.54H598.975V297.672L598.663 297.264C598.815 296.864 599.011 296.496 599.251 296.16C599.499 295.824 599.775 295.548 600.079 295.332C600.415 295.06 600.795 294.852 601.219 294.708C601.643 294.564 602.075 294.48 602.515 294.456C602.955 294.424 603.367 294.452 603.751 294.54V296.544C603.303 296.424 602.811 296.392 602.275 296.448C601.739 296.504 601.243 296.7 600.787 297.036C600.371 297.332 600.047 297.692 599.815 298.116C599.591 298.54 599.435 299 599.347 299.496C599.259 299.984 599.215 300.484 599.215 300.996V307.5H597.067ZM611.305 307.86C610.017 307.86 608.905 307.568 607.969 306.984C607.041 306.4 606.325 305.592 605.821 304.56C605.317 303.528 605.065 302.344 605.065 301.008C605.065 299.648 605.321 298.456 605.833 297.432C606.345 296.408 607.069 295.612 608.005 295.044C608.941 294.468 610.041 294.18 611.305 294.18C612.601 294.18 613.717 294.472 614.653 295.056C615.589 295.632 616.305 296.436 616.801 297.468C617.305 298.492 617.557 299.672 617.557 301.008C617.557 302.36 617.305 303.552 616.801 304.584C616.297 305.608 615.577 306.412 614.641 306.996C613.705 307.572 612.593 307.86 611.305 307.86ZM611.305 305.832C612.649 305.832 613.649 305.384 614.305 304.488C614.961 303.592 615.289 302.432 615.289 301.008C615.289 299.544 614.957 298.38 614.293 297.516C613.629 296.644 612.633 296.208 611.305 296.208C610.401 296.208 609.657 296.412 609.073 296.82C608.489 297.228 608.053 297.792 607.765 298.512C607.477 299.232 607.333 300.064 607.333 301.008C607.333 302.464 607.669 303.632 608.341 304.512C609.013 305.392 610.001 305.832 611.305 305.832ZM626.152 307.86C624.936 307.86 623.912 307.56 623.08 306.96C622.248 306.352 621.616 305.532 621.184 304.5C620.76 303.46 620.548 302.296 620.548 301.008C620.548 299.704 620.76 298.536 621.184 297.504C621.616 296.472 622.248 295.66 623.08 295.068C623.92 294.476 624.948 294.18 626.164 294.18C627.364 294.18 628.396 294.48 629.26 295.08C630.132 295.672 630.8 296.484 631.264 297.516C631.728 298.548 631.96 299.712 631.96 301.008C631.96 302.304 631.728 303.468 631.264 304.5C630.8 305.532 630.132 306.352 629.26 306.96C628.396 307.56 627.36 307.86 626.152 307.86ZM620.188 313.26V294.54H622.096V304.08H622.336V313.26H620.188ZM625.888 305.904C626.744 305.904 627.452 305.688 628.012 305.256C628.572 304.824 628.992 304.24 629.272 303.504C629.552 302.76 629.692 301.928 629.692 301.008C629.692 300.096 629.552 299.272 629.272 298.536C629 297.8 628.576 297.216 628 296.784C627.432 296.352 626.708 296.136 625.828 296.136C624.988 296.136 624.292 296.344 623.74 296.76C623.188 297.168 622.776 297.74 622.504 298.476C622.232 299.204 622.096 300.048 622.096 301.008C622.096 301.952 622.228 302.796 622.492 303.54C622.764 304.276 623.18 304.856 623.74 305.28C624.3 305.696 625.016 305.904 625.888 305.904ZM645.527 307.86C644.303 307.86 643.199 307.652 642.215 307.236C641.239 306.82 640.431 306.228 639.791 305.46C639.159 304.684 638.747 303.768 638.555 302.712L640.763 302.364C641.043 303.452 641.623 304.304 642.503 304.92C643.391 305.528 644.435 305.832 645.635 305.832C646.411 305.832 647.111 305.712 647.735 305.472C648.367 305.224 648.867 304.872 649.235 304.416C649.603 303.96 649.787 303.42 649.787 302.796C649.787 302.412 649.719 302.084 649.583 301.812C649.455 301.532 649.275 301.296 649.043 301.104C648.819 300.904 648.563 300.736 648.275 300.6C647.987 300.464 647.687 300.352 647.375 300.264L642.971 298.956C642.491 298.812 642.027 298.632 641.579 298.416C641.131 298.192 640.731 297.916 640.379 297.588C640.027 297.252 639.747 296.852 639.539 296.388C639.331 295.916 639.227 295.36 639.227 294.72C639.227 293.696 639.491 292.824 640.019 292.104C640.555 291.376 641.279 290.82 642.191 290.436C643.103 290.052 644.131 289.864 645.275 289.872C646.435 289.88 647.471 290.088 648.383 290.496C649.303 290.896 650.063 291.472 650.663 292.224C651.271 292.976 651.679 293.876 651.887 294.924L649.619 295.32C649.499 294.616 649.231 294.012 648.815 293.508C648.407 292.996 647.895 292.604 647.279 292.332C646.663 292.052 645.987 291.908 645.251 291.9C644.547 291.892 643.911 292.004 643.343 292.236C642.775 292.468 642.323 292.792 641.987 293.208C641.651 293.616 641.483 294.088 641.483 294.624C641.483 295.152 641.635 295.58 641.939 295.908C642.243 296.228 642.615 296.484 643.055 296.676C643.503 296.86 643.939 297.012 644.363 297.132L647.651 298.08C648.027 298.184 648.459 298.328 648.947 298.512C649.443 298.696 649.923 298.956 650.387 299.292C650.851 299.62 651.235 300.06 651.539 300.612C651.843 301.156 651.995 301.844 651.995 302.676C651.995 303.508 651.827 304.248 651.491 304.896C651.163 305.544 650.703 306.088 650.111 306.528C649.519 306.96 648.831 307.288 648.047 307.512C647.263 307.744 646.423 307.86 645.527 307.86ZM658.267 307.5L652.483 290.22H654.703L659.731 305.232L664.807 290.22H667.027L661.243 307.5H658.267ZM675.36 307.86C674.176 307.86 673.096 307.652 672.12 307.236C671.144 306.82 670.304 306.224 669.6 305.448C668.896 304.664 668.352 303.72 667.968 302.616C667.592 301.504 667.404 300.252 667.404 298.86C667.404 297.02 667.732 295.428 668.388 294.084C669.044 292.74 669.968 291.704 671.16 290.976C672.352 290.24 673.752 289.872 675.36 289.872C677.296 289.872 678.856 290.324 680.04 291.228C681.224 292.124 682.04 293.352 682.488 294.912L680.328 295.356C679.968 294.308 679.376 293.472 678.552 292.848C677.728 292.224 676.7 291.912 675.468 291.912C674.18 291.904 673.108 292.192 672.252 292.776C671.404 293.352 670.764 294.164 670.332 295.212C669.9 296.26 669.68 297.476 669.672 298.86C669.664 300.236 669.876 301.444 670.308 302.484C670.74 303.524 671.384 304.34 672.24 304.932C673.104 305.516 674.18 305.812 675.468 305.82C676.58 305.828 677.516 305.616 678.276 305.184C679.036 304.752 679.624 304.128 680.04 303.312C680.456 302.496 680.708 301.516 680.796 300.372H677.124V298.608H683.052C683.076 298.768 683.088 298.96 683.088 299.184C683.096 299.4 683.1 299.548 683.1 299.628C683.1 301.204 682.804 302.616 682.212 303.864C681.628 305.104 680.76 306.08 679.608 306.792C678.464 307.504 677.048 307.86 675.36 307.86ZM684.061 310.188L684.193 309.192C684.529 309.216 684.781 309.152 684.949 309C685.117 308.848 685.225 308.64 685.273 308.376C685.321 308.112 685.329 307.82 685.297 307.5H684.061V304.788H686.413V307.86C686.413 308.7 686.205 309.332 685.789 309.756C685.381 310.18 684.805 310.324 684.061 310.188ZM695.785 307.5V290.22H702.613C702.781 290.22 702.981 290.228 703.213 290.244C703.445 290.252 703.669 290.276 703.885 290.316C704.821 290.46 705.605 290.78 706.237 291.276C706.877 291.772 707.357 292.4 707.677 293.16C707.997 293.912 708.157 294.748 708.157 295.668C708.157 296.58 707.993 297.416 707.665 298.176C707.345 298.928 706.865 299.556 706.225 300.06C705.593 300.556 704.813 300.876 703.885 301.02C703.669 301.052 703.445 301.076 703.213 301.092C702.981 301.108 702.781 301.116 702.613 301.116H697.921V307.5H695.785ZM697.921 299.088H702.541C702.693 299.088 702.865 299.08 703.057 299.064C703.257 299.048 703.445 299.02 703.621 298.98C704.173 298.852 704.621 298.62 704.965 298.284C705.317 297.94 705.573 297.54 705.733 297.084C705.893 296.62 705.973 296.148 705.973 295.668C705.973 295.188 705.893 294.72 705.733 294.264C705.573 293.8 705.317 293.396 704.965 293.052C704.621 292.708 704.173 292.476 703.621 292.356C703.445 292.308 703.257 292.28 703.057 292.272C702.865 292.256 702.693 292.248 702.541 292.248H697.921V299.088ZM710.551 307.5V290.22H712.711L721.723 303.72V290.22H723.883V307.5H721.723L712.711 293.988V307.5H710.551ZM734.235 307.86C733.051 307.86 731.971 307.652 730.995 307.236C730.019 306.82 729.179 306.224 728.475 305.448C727.771 304.664 727.227 303.72 726.843 302.616C726.467 301.504 726.279 300.252 726.279 298.86C726.279 297.02 726.607 295.428 727.263 294.084C727.919 292.74 728.843 291.704 730.035 290.976C731.227 290.24 732.627 289.872 734.235 289.872C736.171 289.872 737.731 290.324 738.915 291.228C740.099 292.124 740.915 293.352 741.363 294.912L739.203 295.356C738.843 294.308 738.251 293.472 737.427 292.848C736.603 292.224 735.575 291.912 734.343 291.912C733.055 291.904 731.983 292.192 731.127 292.776C730.279 293.352 729.639 294.164 729.207 295.212C728.775 296.26 728.555 297.476 728.547 298.86C728.539 300.236 728.751 301.444 729.183 302.484C729.615 303.524 730.259 304.34 731.115 304.932C731.979 305.516 733.055 305.812 734.343 305.82C735.455 305.828 736.391 305.616 737.151 305.184C737.911 304.752 738.499 304.128 738.915 303.312C739.331 302.496 739.583 301.516 739.671 300.372H735.999V298.608H741.927C741.951 298.768 741.963 298.96 741.963 299.184C741.971 299.4 741.975 299.548 741.975 299.628C741.975 301.204 741.679 302.616 741.087 303.864C740.503 305.104 739.635 306.08 738.483 306.792C737.339 307.504 735.923 307.86 734.235 307.86ZM742.936 310.188L743.068 309.192C743.404 309.216 743.656 309.152 743.824 309C743.992 308.848 744.1 308.64 744.148 308.376C744.196 308.112 744.204 307.82 744.172 307.5H742.936V304.788H745.288V307.86C745.288 308.7 745.08 309.332 744.664 309.756C744.256 310.18 743.68 310.324 742.936 310.188ZM757.78 307.848C756.572 307.848 755.548 307.52 754.708 306.864C753.868 306.208 753.292 305.328 752.98 304.224L755.104 303.72C755.232 304.304 755.54 304.8 756.028 305.208C756.524 305.616 757.092 305.82 757.732 305.82C758.148 305.82 758.572 305.72 759.004 305.52C759.436 305.312 759.768 304.976 760 304.512C760.16 304.192 760.252 303.84 760.276 303.456C760.3 303.064 760.312 302.604 760.312 302.076V290.22H762.472V302.076C762.472 302.572 762.468 303.016 762.46 303.408C762.46 303.8 762.42 304.176 762.34 304.536C762.268 304.888 762.124 305.248 761.908 305.616C761.476 306.376 760.896 306.94 760.168 307.308C759.448 307.668 758.652 307.848 757.78 307.848ZM766.075 307.5V290.22H772.903C773.071 290.22 773.271 290.228 773.503 290.244C773.735 290.252 773.959 290.276 774.175 290.316C775.111 290.46 775.895 290.78 776.527 291.276C777.167 291.772 777.647 292.4 777.967 293.16C778.287 293.912 778.447 294.748 778.447 295.668C778.447 296.58 778.283 297.416 777.955 298.176C777.635 298.928 777.155 299.556 776.515 300.06C775.883 300.556 775.103 300.876 774.175 301.02C773.959 301.052 773.735 301.076 773.503 301.092C773.271 301.108 773.071 301.116 772.903 301.116H768.211V307.5H766.075ZM768.211 299.088H772.831C772.983 299.088 773.155 299.08 773.347 299.064C773.547 299.048 773.735 299.02 773.911 298.98C774.463 298.852 774.911 298.62 775.255 298.284C775.607 297.94 775.863 297.54 776.023 297.084C776.183 296.62 776.263 296.148 776.263 295.668C776.263 295.188 776.183 294.72 776.023 294.264C775.863 293.8 775.607 293.396 775.255 293.052C774.911 292.708 774.463 292.476 773.911 292.356C773.735 292.308 773.547 292.28 773.347 292.272C773.155 292.256 772.983 292.248 772.831 292.248H768.211V299.088ZM787.836 307.86C786.652 307.86 785.572 307.652 784.596 307.236C783.62 306.82 782.78 306.224 782.076 305.448C781.372 304.664 780.828 303.72 780.444 302.616C780.068 301.504 779.88 300.252 779.88 298.86C779.88 297.02 780.208 295.428 780.864 294.084C781.52 292.74 782.444 291.704 783.636 290.976C784.828 290.24 786.228 289.872 787.836 289.872C789.772 289.872 791.332 290.324 792.516 291.228C793.7 292.124 794.516 293.352 794.964 294.912L792.804 295.356C792.444 294.308 791.852 293.472 791.028 292.848C790.204 292.224 789.176 291.912 787.944 291.912C786.656 291.904 785.584 292.192 784.728 292.776C783.88 293.352 783.24 294.164 782.808 295.212C782.376 296.26 782.156 297.476 782.148 298.86C782.14 300.236 782.352 301.444 782.784 302.484C783.216 303.524 783.86 304.34 784.716 304.932C785.58 305.516 786.656 305.812 787.944 305.82C789.056 305.828 789.992 305.616 790.752 305.184C791.512 304.752 792.1 304.128 792.516 303.312C792.932 302.496 793.184 301.516 793.272 300.372H789.6V298.608H795.528C795.552 298.768 795.564 298.96 795.564 299.184C795.572 299.4 795.576 299.548 795.576 299.628C795.576 301.204 795.28 302.616 794.688 303.864C794.104 305.104 793.236 306.08 792.084 306.792C790.94 307.504 789.524 307.86 787.836 307.86ZM496.462 340.86C495.174 340.86 494.062 340.568 493.126 339.984C492.198 339.4 491.482 338.592 490.978 337.56C490.474 336.528 490.222 335.344 490.222 334.008C490.222 332.648 490.478 331.456 490.99 330.432C491.502 329.408 492.226 328.612 493.162 328.044C494.098 327.468 495.198 327.18 496.462 327.18C497.758 327.18 498.874 327.472 499.81 328.056C500.746 328.632 501.462 329.436 501.958 330.468C502.462 331.492 502.714 332.672 502.714 334.008C502.714 335.36 502.462 336.552 501.958 337.584C501.454 338.608 500.734 339.412 499.798 339.996C498.862 340.572 497.75 340.86 496.462 340.86ZM496.462 338.832C497.806 338.832 498.806 338.384 499.462 337.488C500.118 336.592 500.446 335.432 500.446 334.008C500.446 332.544 500.114 331.38 499.45 330.516C498.786 329.644 497.79 329.208 496.462 329.208C495.558 329.208 494.814 329.412 494.23 329.82C493.646 330.228 493.21 330.792 492.922 331.512C492.634 332.232 492.49 333.064 492.49 334.008C492.49 335.464 492.826 336.632 493.498 337.512C494.17 338.392 495.158 338.832 496.462 338.832ZM505.356 340.5V327.54H507.264V330.672L506.952 330.264C507.104 329.864 507.3 329.496 507.54 329.16C507.788 328.824 508.064 328.548 508.368 328.332C508.704 328.06 509.084 327.852 509.508 327.708C509.932 327.564 510.364 327.48 510.804 327.456C511.244 327.424 511.656 327.452 512.04 327.54V329.544C511.592 329.424 511.1 329.392 510.564 329.448C510.028 329.504 509.532 329.7 509.076 330.036C508.66 330.332 508.336 330.692 508.104 331.116C507.88 331.54 507.724 332 507.636 332.496C507.548 332.984 507.504 333.484 507.504 333.996V340.5H505.356ZM523.338 340.5L517.554 323.22H519.774L524.802 338.232L529.878 323.22H532.098L526.314 340.5H523.338ZM533.674 325.248V323.04H535.81V325.248H533.674ZM533.674 340.5V327.54H535.81V340.5H533.674ZM544.498 340.86C543.29 340.86 542.254 340.56 541.39 339.96C540.526 339.352 539.858 338.532 539.386 337.5C538.922 336.468 538.69 335.304 538.69 334.008C538.69 332.712 538.922 331.548 539.386 330.516C539.858 329.484 540.526 328.672 541.39 328.08C542.254 327.48 543.286 327.18 544.486 327.18C545.71 327.18 546.738 327.476 547.57 328.068C548.402 328.66 549.03 329.472 549.454 330.504C549.886 331.536 550.102 332.704 550.102 334.008C550.102 335.296 549.886 336.46 549.454 337.5C549.03 338.532 548.402 339.352 547.57 339.96C546.738 340.56 545.714 340.86 544.498 340.86ZM544.762 338.904C545.634 338.904 546.35 338.696 546.91 338.28C547.47 337.856 547.882 337.276 548.146 336.54C548.418 335.796 548.554 334.952 548.554 334.008C548.554 333.048 548.418 332.204 548.146 331.476C547.882 330.74 547.474 330.168 546.922 329.76C546.37 329.344 545.67 329.136 544.822 329.136C543.942 329.136 543.214 329.352 542.638 329.784C542.07 330.216 541.646 330.8 541.366 331.536C541.094 332.272 540.958 333.096 540.958 334.008C540.958 334.928 541.098 335.76 541.378 336.504C541.658 337.24 542.078 337.824 542.638 338.256C543.206 338.688 543.914 338.904 544.762 338.904ZM548.554 340.5V330.96H548.314V323.22H550.462V340.5H548.554ZM559.441 340.86C558.169 340.86 557.057 340.58 556.105 340.02C555.161 339.452 554.425 338.664 553.897 337.656C553.369 336.64 553.105 335.456 553.105 334.104C553.105 332.688 553.365 331.464 553.885 330.432C554.405 329.392 555.129 328.592 556.057 328.032C556.993 327.464 558.089 327.18 559.345 327.18C560.649 327.18 561.757 327.48 562.669 328.08C563.589 328.68 564.277 329.536 564.733 330.648C565.197 331.76 565.397 333.084 565.333 334.62H563.173V333.852C563.149 332.26 562.825 331.072 562.201 330.288C561.577 329.496 560.649 329.1 559.417 329.1C558.097 329.1 557.093 329.524 556.405 330.372C555.717 331.22 555.373 332.436 555.373 334.02C555.373 335.548 555.717 336.732 556.405 337.572C557.093 338.412 558.073 338.832 559.345 338.832C560.201 338.832 560.945 338.636 561.577 338.244C562.209 337.852 562.705 337.288 563.065 336.552L565.117 337.26C564.613 338.404 563.853 339.292 562.837 339.924C561.829 340.548 560.697 340.86 559.441 340.86ZM554.653 334.62V332.904H564.229V334.62H554.653ZM573.524 340.86C572.236 340.86 571.124 340.568 570.188 339.984C569.26 339.4 568.544 338.592 568.04 337.56C567.536 336.528 567.284 335.344 567.284 334.008C567.284 332.648 567.54 331.456 568.052 330.432C568.564 329.408 569.288 328.612 570.224 328.044C571.16 327.468 572.26 327.18 573.524 327.18C574.82 327.18 575.936 327.472 576.872 328.056C577.808 328.632 578.524 329.436 579.02 330.468C579.524 331.492 579.776 332.672 579.776 334.008C579.776 335.36 579.524 336.552 579.02 337.584C578.516 338.608 577.796 339.412 576.86 339.996C575.924 340.572 574.812 340.86 573.524 340.86ZM573.524 338.832C574.868 338.832 575.868 338.384 576.524 337.488C577.18 336.592 577.508 335.432 577.508 334.008C577.508 332.544 577.176 331.38 576.512 330.516C575.848 329.644 574.852 329.208 573.524 329.208C572.62 329.208 571.876 329.412 571.292 329.82C570.708 330.228 570.272 330.792 569.984 331.512C569.696 332.232 569.552 333.064 569.552 334.008C569.552 335.464 569.888 336.632 570.56 337.512C571.232 338.392 572.22 338.832 573.524 338.832ZM582.334 340.5V338.148H584.686V340.5H582.334Z" fill="black" fill-opacity="0.53"/>
<defs>
<linearGradient id="paint0_linear_1422_3418" x1="573.599" y1="174.944" x2="500.694" y2="247.85" gradientUnits="userSpaceOnUse">
<stop stop-color="#0E18DC"/>
<stop offset="0.125" stop-color="#2618DD"/>
<stop offset="0.548" stop-color="#7317DF"/>
<stop offset="0.85" stop-color="#A316E0"/>
<stop offset="1" stop-color="#B516E1"/>
</linearGradient>
</defs>
</svg>
